<svg width="122.003174" height="122.000000" viewBox="0 0 122.003 122" fill="none" xmlns="http://www.w3.org/2000/svg" xmlns:xlink="http://www.w3.org/1999/xlink">
	<desc>
			Created with Pixso.
	</desc>
	<defs>
		<clipPath id="clip12_76">
			<rect id="Layer_1" rx="0.000000" width="121.003174" height="121.000000" transform="translate(0.500000 0.500000)" fill="white" fill-opacity="0"/>
		</clipPath>
	</defs>
	<rect id="Layer_1" rx="0.000000" width="121.003174" height="121.000000" transform="translate(0.500000 0.500000)" fill="#FFFFFF" fill-opacity="0"/>
	<g clip-path="url(#clip12_76)">
		<path id="Vector" d="M121.98 28.35C121.98 22.05 118.06 17 112.11 15.59C109.88 15.06 107.6 15.25 105.35 15.29C104.32 15.29 104.13 14.99 104.13 14.02C104.15 11.96 104.37 9.88 103.89 7.85C103.34 5.44 101.92 3.31 99.9 1.87C97.89 0.43 95.42 -0.22 92.96 0.04C90.49 0.29 88.21 1.44 86.53 3.26C84.86 5.09 83.91 7.46 83.86 9.94C83.83 11.44 83.83 12.95 83.86 14.46C83.88 15.07 83.72 15.26 83.08 15.26C79.39 15.23 75.69 15.23 72 15.26C71.34 15.26 71.12 15.1 71.14 14.41C71.2 13.06 71.18 11.71 71.14 10.36C71.03 4.47 66.63 0 60.96 0C55.28 0 50.88 4.48 50.77 10.37C50.74 11.72 50.72 13.07 50.77 14.42C50.8 15.12 50.55 15.26 49.9 15.26C46.21 15.23 42.51 15.23 38.82 15.26C38.19 15.26 38.06 15.04 38.05 14.45C38.01 12.39 38.24 10.31 37.87 8.27C37.41 5.83 36.08 3.64 34.12 2.12C32.16 0.59 29.71 -0.16 27.23 0.01C24.75 0.17 22.42 1.24 20.68 3.01C18.94 4.78 17.91 7.13 17.78 9.61C17.72 11.16 17.72 12.71 17.78 14.26C17.81 15.02 17.62 15.27 16.81 15.27C14.79 15.27 12.76 15.05 10.76 15.42C5.37 16.41 1.93 19.56 0.37 24.81C0.28 25.13 0.37 25.55 -0.03 25.72L-0.03 94.81C1.06 96.36 2 96.83 3.27 96.44C4.5 96.07 5.03 95.1 5.03 93.17L5.03 92.46C5.03 77.25 5.02 62.05 5.01 46.84C5.01 45.98 5.17 45.69 6.1 45.71C9.79 45.77 13.48 45.74 17.17 45.74L115.67 45.74C116.34 45.74 116.92 45.58 116.92 46.69C116.88 62.14 116.88 77.58 116.92 93.02C116.92 93.89 116.63 94.07 115.83 94.06C111.27 94.02 106.7 94.03 102.14 94.06C97.17 94.06 94.05 97.19 94.03 102.15C94.03 106.68 94 111.21 94.06 115.73C94.06 116.75 93.74 116.96 92.78 116.95C89.05 116.9 85.32 116.93 81.59 116.93C79.76 116.93 77.93 116.89 76.11 116.96C75.69 116.97 75.28 117.08 74.92 117.29C74.55 117.5 74.25 117.8 74.03 118.15C73.81 118.51 73.69 118.92 73.67 119.33C73.64 119.75 73.73 120.17 73.91 120.55C74.2 121.18 74.87 121.45 75.26 121.99L97.18 121.99C97.84 121.64 98.44 121.18 98.95 120.64C106.19 113.39 113.43 106.15 120.68 98.92C121.09 98.55 121.42 98.1 121.64 97.59C121.87 97.09 121.98 96.54 121.97 95.99C121.97 73.45 121.97 50.9 121.98 28.35ZM115.68 40.71C97.45 40.69 79.23 40.68 61 40.69C42.82 40.69 24.63 40.7 6.45 40.72C5.28 40.72 5 40.43 5.03 39.29C5.11 35.71 5.05 32.14 5.06 28.56C5.06 23.53 8.28 20.34 13.34 20.32C14.49 20.32 15.64 20.38 16.79 20.3C17.67 20.25 17.85 20.59 17.83 21.39C17.74 22.66 17.82 23.93 18.07 25.18C18.54 27.2 19.62 29.03 21.16 30.41C22.7 31.8 24.63 32.69 26.69 32.95C27.91 33.08 29.14 33.12 30.37 33.05C31.93 32.99 33 31.95 33.04 30.55C33.07 29.16 31.96 28.03 30.35 27.96C29.48 27.92 28.6 27.96 27.73 27.93C26.45 27.9 25.23 27.37 24.32 26.45C23.42 25.54 22.91 24.31 22.89 23.02C22.84 18.7 22.84 14.37 22.89 10.04C22.91 8.78 23.41 7.57 24.28 6.65C25.15 5.74 26.33 5.18 27.59 5.1C28.85 5.01 30.1 5.4 31.09 6.18C32.08 6.97 32.74 8.1 32.94 9.35C33.23 11.12 32.99 12.91 33.06 14.7C33.09 15.21 32.81 15.27 32.4 15.26C31.81 15.26 31.21 15.26 30.62 15.26C29.08 15.31 27.99 16.34 27.95 17.74C27.92 19.15 29.04 20.29 30.63 20.29C36.67 20.31 42.7 20.29 48.74 20.29C50.8 20.29 50.8 20.29 50.81 22.32C50.84 27.56 53.85 31.55 58.68 32.73C60.35 33.09 62.07 33.18 63.77 32.98C64.4 32.92 64.98 32.63 65.4 32.16C65.83 31.7 66.06 31.09 66.05 30.46C66.05 29.83 65.81 29.22 65.38 28.76C64.95 28.3 64.37 28.01 63.74 27.96C62.78 27.87 61.83 27.94 60.87 27.9C58.07 27.8 55.98 25.77 55.94 22.98C55.89 18.65 55.89 14.33 55.94 10C55.98 8.68 56.53 7.43 57.47 6.52C58.42 5.6 59.68 5.09 61 5.09C62.32 5.1 63.58 5.62 64.52 6.54C65.46 7.46 66 8.71 66.03 10.03C66.08 11.54 66.03 13.05 66.06 14.56C66.06 15.06 65.93 15.28 65.4 15.24C64.86 15.2 64.29 15.22 63.73 15.24C62.12 15.27 61 16.31 60.99 17.76C60.98 19.2 62.06 20.28 63.7 20.29C69.85 20.31 76.01 20.29 82.16 20.29C83.86 20.29 83.9 20.29 83.85 21.95C83.74 25.75 85.06 28.86 88.16 31.13C90.83 33.08 93.89 33.26 97.03 32.92C97.61 32.85 98.14 32.56 98.52 32.12C98.91 31.68 99.11 31.11 99.1 30.52C99.13 29.92 98.93 29.33 98.54 28.86C98.16 28.4 97.61 28.1 97.01 28.01C96.07 27.92 95.12 27.89 94.17 27.91C91.11 27.84 88.98 25.81 88.94 22.76C88.88 18.59 88.88 14.42 88.94 10.25C88.97 7.29 91.21 5.05 94.03 5.04C96.9 5.04 99.09 7.32 99.12 10.36C99.12 11.67 99.07 12.99 99.15 14.29C99.19 15.12 98.89 15.31 98.15 15.25C97.63 15.21 97.11 15.21 96.6 15.25C95.08 15.32 94.05 16.38 94.08 17.83C94.1 19.28 95.09 20.26 96.6 20.28C100.53 20.32 104.46 20.28 108.38 20.3C113.82 20.3 116.92 23.42 116.93 28.87C116.93 32.4 116.89 35.94 116.95 39.47C116.96 40.52 116.63 40.71 115.68 40.71ZM99.12 112.76C99.12 109.25 99.1 105.45 99.12 101.66C99.12 100.12 100.21 99.14 101.83 99.11C105.55 99.09 109.28 99.11 112.75 99.11L99.12 112.76Z" fill="#999999" fill-opacity="1.000000" fill-rule="nonzero"/>
		<path id="Vector" d="M56.93 86.21C51.81 77.41 46.69 68.62 41.58 59.82C40.63 58.18 39.45 56.86 37.61 56.26C34.48 55.22 31.47 56.5 29.63 59.76C19.82 76.98 9.36 93.83 0 111.29L0 115.11C0.36 115.19 0.29 115.55 0.36 115.78C1.32 118.82 3.23 120.87 6.32 121.76C6.48 121.8 6.63 121.83 6.67 122.02L64.08 122.02C64.16 121.94 64.22 121.81 64.3 121.8C66.72 121.48 68.5 120.15 69.72 118.13C71.69 114.85 71.63 111.51 69.72 108.21C65.46 100.87 61.2 93.53 56.93 86.21ZM65.94 114.17C65.54 116.01 64.28 116.93 62.19 116.93L9.34 116.93C5.57 116.93 3.96 114.02 5.9 110.67C13.18 98.15 20.46 85.62 27.76 73.1C29.87 69.47 31.98 65.84 34.09 62.22C35.05 60.59 36.14 60.58 37.09 62.2C46.49 78.35 55.89 94.51 65.29 110.66C65.95 111.7 66.19 112.96 65.94 114.17Z" fill="#999999" fill-opacity="1.000000" fill-rule="nonzero"/>
		<path id="Vector" d="M73.68 86.15C73.7 87.96 74.69 88.92 76.51 88.93C79.73 88.96 82.94 88.96 86.16 88.93C88 88.93 88.89 87.98 88.92 86.11C88.94 84.52 88.92 82.92 88.92 81.33C88.92 79.74 88.92 78.15 88.92 76.56C88.89 74.65 87.96 73.69 86.05 73.69C82.87 73.66 79.69 73.66 76.52 73.69C74.71 73.71 73.7 74.69 73.68 76.49C73.64 79.71 73.65 82.93 73.68 86.15ZM81.46 78.82C83.86 78.82 83.86 78.82 83.86 81.18C83.86 83.88 83.86 83.88 81.21 83.88C78.8 83.88 78.8 83.88 78.8 81.53C78.8 78.81 78.8 78.81 81.46 78.81L81.46 78.82Z" fill="#999999" fill-opacity="1.000000" fill-rule="nonzero"/>
		<path id="Vector" d="M94.06 86.27C94.06 87.98 95.01 88.91 96.73 88.94C98.44 88.97 100.06 88.94 101.73 88.94L106.61 88.94C108.23 88.87 109.24 87.98 109.27 86.35C109.33 83.01 109.33 79.68 109.27 76.34C109.24 74.75 108.24 73.74 106.63 73.71C103.3 73.66 99.96 73.66 96.63 73.71C95.01 73.74 94.08 74.76 94.05 76.38C94.03 79.67 94.03 82.97 94.06 86.27ZM101.77 78.82C104.17 78.82 104.17 78.82 104.17 81.2C104.17 83.88 104.17 83.88 101.5 83.88C99.11 83.88 99.11 83.88 99.11 81.51C99.11 78.81 99.11 78.81 101.77 78.81L101.77 78.82Z" fill="#999999" fill-opacity="1.000000" fill-rule="nonzero"/>
		<path id="Vector" d="M76.48 109.3C79.69 109.34 82.91 109.34 86.12 109.3C87.94 109.28 88.9 108.29 88.92 106.48C88.94 103.26 88.94 100.04 88.92 96.83C88.9 94.98 87.96 94.09 86.1 94.06C84.51 94.04 82.91 94.06 81.32 94.06C79.73 94.06 78.14 94.06 76.55 94.06C74.64 94.08 73.68 95.02 73.66 96.93C73.63 100.11 73.63 103.29 73.66 106.46C73.7 108.24 74.69 109.28 76.48 109.3ZM81.31 99.11C83.85 99.11 83.85 99.11 83.85 101.66C83.85 104.16 83.85 104.16 81.35 104.16C78.79 104.16 78.79 104.16 78.79 101.59C78.8 99.12 78.8 99.12 81.31 99.12L81.31 99.11Z" fill="#999999" fill-opacity="1.000000" fill-rule="nonzero"/>
		<path id="Vector" d="M76.52 68.62C79.72 68.64 82.93 68.64 86.14 68.62C87.9 68.62 88.9 67.67 88.91 65.92C88.94 62.63 88.94 59.34 88.91 56.05C88.9 54.38 87.9 53.41 86.24 53.38C84.58 53.35 82.99 53.38 81.36 53.38C79.74 53.38 78.18 53.38 76.61 53.38C74.73 53.38 73.71 54.34 73.69 56.2C73.66 59.41 73.66 62.62 73.69 65.83C73.71 67.63 74.73 68.61 76.52 68.62ZM81.51 58.43C83.86 58.43 83.86 58.43 83.86 60.98C83.86 63.53 83.86 63.55 81.29 63.55C78.8 63.55 78.8 63.55 78.8 61.12C78.8 58.44 78.8 58.44 81.51 58.44L81.51 58.43Z" fill="#999999" fill-opacity="1.000000" fill-rule="nonzero"/>
		<path id="Vector" d="M94.05 65.87C94.08 67.63 95.04 68.61 96.78 68.62C100.03 68.64 103.28 68.64 106.53 68.62C108.19 68.62 109.25 67.66 109.27 66C109.33 62.66 109.33 59.34 109.27 56.01C109.25 54.35 108.19 53.4 106.53 53.38C103.28 53.36 100.03 53.36 96.78 53.38C95.04 53.38 94.08 54.37 94.05 56.13C94.03 57.72 94.05 59.31 94.05 60.88C94.05 62.55 94.03 64.21 94.05 65.87ZM101.62 58.44C104.17 58.44 104.17 58.44 104.17 61.05C104.17 63.56 104.17 63.56 101.64 63.56C99.11 63.56 99.09 63.56 99.09 60.95C99.11 58.44 99.11 58.44 101.62 58.44Z" fill="#999999" fill-opacity="1.000000" fill-rule="nonzero"/>
		<path id="Vector" d="M68.6 56.11C68.6 54.44 67.58 53.4 65.95 53.39C62.65 53.36 59.36 53.36 56.08 53.39C54.42 53.39 53.42 54.41 53.39 56.07C53.36 57.73 53.39 59.33 53.39 60.96C53.39 62.59 53.39 64.21 53.39 65.84C53.41 67.58 54.39 68.61 56.11 68.62C59.36 68.64 62.62 68.64 65.87 68.62C67.6 68.62 68.61 67.6 68.63 65.87C68.64 62.62 68.63 59.36 68.6 56.11ZM60.96 63.57C58.41 63.57 58.41 63.57 58.41 60.94C58.41 58.44 58.41 58.44 60.96 58.44C63.55 58.44 63.55 58.44 63.55 61C63.55 63.57 63.56 63.57 60.96 63.57L60.96 63.57Z" fill="#999999" fill-opacity="1.000000" fill-rule="nonzero"/>
		<path id="Vector" d="M63.56 86.32C63.59 87.91 64.6 88.91 66.05 88.93C67.5 88.94 68.6 87.87 68.6 86.25C68.6 84.63 68.6 83 68.6 81.37C68.6 79.75 68.6 78.19 68.6 76.61C68.6 74.74 67.62 73.72 65.77 73.7C63.43 73.66 61.08 73.67 58.74 73.7C57 73.72 55.93 74.73 55.92 76.24C55.92 77.76 57 78.77 58.74 78.79C60.01 78.82 61.28 78.84 62.56 78.79C63.32 78.76 63.59 78.95 63.57 79.77C63.51 81.95 63.52 84.14 63.56 86.32Z" fill="#999999" fill-opacity="1.000000" fill-rule="nonzero"/>
		<path id="Vector" d="M35.64 73.7C34.1 73.66 33.06 74.85 33.06 76.73C33.06 80.34 33.06 83.95 33.06 87.55L33.06 98.62C33.06 99.26 33.06 99.9 33.43 100.46C33.72 100.91 34.15 101.26 34.65 101.46C35.15 101.65 35.7 101.68 36.22 101.54C37.43 101.22 38.11 100.3 38.11 98.87C38.11 91.49 38.11 84.11 38.11 76.73C38.11 74.91 37.16 73.75 35.64 73.7Z" fill="#999999" fill-opacity="1.000000" fill-rule="nonzero"/>
		<path id="Vector" d="M35.63 106.75C34.97 106.74 34.34 106.99 33.86 107.44C33.38 107.89 33.11 108.51 33.08 109.17C33.06 109.51 33.11 109.84 33.22 110.16C33.33 110.48 33.51 110.77 33.74 111.02C33.97 111.26 34.25 111.46 34.55 111.59C34.86 111.73 35.2 111.79 35.53 111.79C35.87 111.8 36.21 111.75 36.52 111.63C36.83 111.5 37.12 111.32 37.36 111.09C37.6 110.85 37.79 110.57 37.93 110.26C38.06 109.95 38.12 109.62 38.12 109.28C38.11 108.62 37.85 107.99 37.39 107.52C36.92 107.04 36.29 106.77 35.63 106.75Z" fill="#999999" fill-opacity="1.000000" fill-rule="nonzero"/>
	</g>
</svg>
