<svg width="123.620361" height="122.000000" viewBox="0 0 123.62 122" fill="none" xmlns="http://www.w3.org/2000/svg" xmlns:xlink="http://www.w3.org/1999/xlink">
	<desc>
			Created with Pixso.
	</desc>
	<defs>
		<clipPath id="clip12_51">
			<rect id="Layer_1" rx="0.000000" width="122.620354" height="121.000000" transform="translate(0.500000 0.500000)" fill="white" fill-opacity="0"/>
		</clipPath>
	</defs>
	<rect id="Layer_1" rx="0.000000" width="122.620354" height="121.000000" transform="translate(0.500000 0.500000)" fill="#FFFFFF" fill-opacity="0"/>
	<g clip-path="url(#clip12_51)">
		<path id="Vector" d="M93.56 55.64C94.43 54.96 95.07 53.49 95.99 53.52C96.8 53.55 97.57 54.86 98.34 55.62C99.04 56.3 99.7 57 100.4 57.66C101.54 58.74 102.53 58.74 103.67 57.64C104.94 56.41 106.22 55.17 107.42 53.87C107.94 53.32 108.21 53.34 108.73 53.87C112.43 57.63 116.19 61.33 119.89 65.09C120.55 65.77 120.95 65.94 121.62 65.12C122.17 64.39 122.84 63.76 123.61 63.26L123.61 63.01C123.32 62.75 123.02 62.49 122.73 62.21L98.02 37.51C96.39 35.87 95.54 35.88 93.88 37.53C90.86 40.55 87.82 43.54 84.83 46.61C84.12 47.34 83.74 47.48 82.94 46.66C76.59 40.23 70.19 33.86 63.81 27.48C62.07 25.74 61.32 25.74 59.58 27.48C53.17 33.89 46.75 40.29 40.37 46.75C39.64 47.49 39.3 47.4 38.64 46.72C35.66 43.66 32.61 40.66 29.59 37.64C27.81 35.86 27.03 35.85 25.28 37.6C17.47 45.41 9.66 53.22 1.85 61.03C1.17 61.71 0.01 62.42 0 63.12C0 63.83 1.25 64.46 1.85 65.2C2.44 65.95 2.79 65.84 3.4 65.2C7.1 61.44 10.87 57.74 14.57 53.97C15.17 53.37 15.48 53.36 16.05 53.97C17.2 55.22 18.42 56.39 19.63 57.57C20.84 58.75 21.84 58.78 23.08 57.57C24.32 56.37 25.6 55.08 26.84 53.8C27.25 53.37 27.53 53.27 27.96 53.78C28.5 54.44 29.1 55.04 29.76 55.57C30.55 56.21 30.5 56.6 29.78 57.32C20.4 66.64 11.04 75.98 1.72 85.35C1.08 85.98 0.04 86.61 0 87.27C-0.04 88.04 1.19 88.53 1.72 89.27C2.38 90.18 2.83 89.96 3.54 89.25C15.14 77.6 26.76 65.97 38.4 54.35C38.59 54.19 38.76 54.02 38.91 53.83C39.34 53.25 39.66 53.36 40.12 53.83C41.28 55.06 42.5 56.24 43.7 57.43C45.1 58.8 46.02 58.81 47.41 57.43C49.24 55.61 51.09 53.81 52.87 51.95C53.44 51.35 53.76 51.29 54.36 51.92C56.08 53.73 57.88 55.47 59.64 57.24C61.31 58.9 62.09 58.89 63.78 57.2C65.55 55.43 67.35 53.69 69.07 51.88C69.64 51.29 69.94 51.35 70.47 51.9C72.32 53.8 74.21 55.69 76.1 57.55C77.34 58.76 78.32 58.76 79.55 57.55C80.71 56.43 81.88 55.32 82.96 54.12C83.63 53.37 84.01 53.31 84.79 54.09C93.5 62.87 102.24 71.63 111 80.36C113.94 83.29 116.9 86.21 119.8 89.18C120.51 89.91 120.97 90.13 121.69 89.22C122.2 88.5 122.85 87.9 123.59 87.42L123.59 87.18C123.24 86.87 122.87 86.55 122.54 86.21C112.88 76.57 103.23 66.92 93.57 57.28C92.96 56.67 92.75 56.27 93.56 55.64ZM35.72 51.34C34.96 52.05 34.22 53.35 33.48 53.34C32.74 53.34 31.96 52.08 31.21 51.34C30.6 50.75 30.01 50.15 29.41 49.55C27.87 48.02 26.96 48.01 25.44 49.51C24.27 50.68 23.1 51.84 21.95 53.02C21.57 53.41 21.3 53.62 20.83 53.09C20.14 52.31 19.38 51.59 18.62 50.87C18.26 50.53 18.22 50.3 18.62 49.92C21.4 47.18 24.17 44.42 26.92 41.64C27.23 41.33 27.46 41.17 27.86 41.58C30.64 44.4 33.43 47.17 36.22 49.97C36.36 50.1 36.47 50.25 36.75 50.58C36.4 50.81 36.05 51.07 35.72 51.34ZM80.18 51.23C79.4 51.98 78.66 53.26 77.82 53.33C76.98 53.41 76.27 52.02 75.5 51.27C74.15 49.95 72.83 48.59 71.48 47.27C70.24 46.06 69.27 46.06 68.04 47.27C66.14 49.13 64.25 51 62.4 52.91C61.87 53.46 61.57 53.55 61 52.94C59.19 51.05 57.31 49.22 55.45 47.38C54.08 46.02 53.14 46.03 51.75 47.41C49.85 49.28 47.97 51.15 46.12 53.06C45.68 53.51 45.41 53.51 45 53.06C44.2 52.17 42.77 51.38 42.67 50.43C42.57 49.48 44.09 48.68 44.93 47.84C50.24 42.5 55.59 37.19 60.89 31.84C61.5 31.22 61.8 31.13 62.47 31.81C68.39 37.79 74.34 43.75 80.32 49.68C80.56 49.9 80.82 50.09 81.09 50.27C80.67 50.71 80.43 50.98 80.17 51.23L80.18 51.23ZM90.58 52.95C90.11 53.44 89.79 53.63 89.29 53C88.54 52.05 86.97 51.37 87.01 50.37C87.04 49.5 88.45 48.68 89.27 47.84C91.29 45.81 93.33 43.81 95.32 41.76C95.85 41.21 96.11 41.23 96.63 41.76C99.25 44.43 101.9 47.08 104.57 49.7C105.07 50.18 105.22 50.48 104.62 51C103.86 51.67 103.15 52.38 102.48 53.13C102.12 53.52 101.9 53.49 101.53 53.11C100.26 51.81 98.97 50.54 97.69 49.26C97.19 48.76 96.65 48.38 95.87 48.41C95.15 48.41 94.63 48.84 94.14 49.34C92.96 50.55 91.74 51.72 90.59 52.95L90.58 52.95Z" fill="#999999" fill-opacity="1.000000" fill-rule="nonzero"/>
		<path id="Vector" d="M115.83 115.77C115.02 115.18 114.82 114.7 115.2 113.71C116.19 111.14 116.39 108.33 115.76 105.65C115.13 102.97 113.71 100.54 111.68 98.68C110.93 97.99 110.91 97.48 111.27 96.57C112.85 92.62 112.24 88.94 109.29 85.85C106.4 82.81 102.8 81.87 98.81 83.25C92.96 85.27 90.42 91.39 92.96 97.08C93.15 97.51 93.36 97.89 92.83 98.2C92.51 98.37 92.23 99.05 91.88 98.55C91.34 97.76 89.86 97.79 90.12 96.29C90.68 93.09 89.71 90.36 87.1 88.4C84.42 86.37 81.45 86.11 78.48 87.7C75.62 89.23 74.03 91.74 74.28 95C74.41 96.63 74.12 97.73 72.71 98.5C72.35 98.7 72.14 99.5 71.58 98.87C71.11 98.35 70.1 98.1 70.74 96.97C71.56 95.47 71.89 93.76 71.69 92.06C71.28 87.72 68.98 84.65 64.89 83.22C60.79 81.78 57.1 82.81 54.22 85.99C51.34 89.17 50.77 93.01 52.58 96.99C53.01 97.94 52.43 98.18 51.99 98.63C51.41 99.24 51.19 98.53 50.85 98.32C50.52 98.1 50.31 97.82 50 97.65C49.72 97.53 49.5 97.3 49.39 97.02C49.27 96.74 49.27 96.43 49.39 96.15C49.7 95.03 49.55 93.91 49.3 92.81C48.44 88.97 44.3 86.15 40.46 86.76C36.15 87.46 32.96 91.28 33.51 95.34C33.69 96.68 33.48 97.55 32.3 98.18C31.88 98.4 31.7 99.25 30.95 98.6C30.33 98.08 30.04 97.66 30.48 96.8C31.55 94.71 31.66 92.47 31.09 90.22C29.76 84.93 24.26 81.66 18.94 82.95C16.37 83.59 14.16 85.22 12.78 87.47C11.39 89.73 10.95 92.44 11.54 95.02C11.75 95.97 12.6 96.91 12.43 97.69C12.23 98.53 11.11 99.13 10.5 99.9C7.13 104.21 6.34 108.94 8.29 114.07C8.53 114.72 8.47 115.08 7.9 115.47C6.86 116.23 5.9 117.1 5.04 118.06C3.52 119.68 3.51 119.68 5.31 121.02C5.62 121.22 5.91 121.44 6.18 121.68C6.69 122.19 7.02 122 7.42 121.51C8.66 119.98 10.16 118.67 11.84 117.63C13.49 116.59 13.7 115.7 12.71 114.01C11.95 112.77 11.48 111.38 11.34 109.93C11.01 105.79 12.61 102.58 16.08 100.28C17.41 99.4 17.81 98.47 17.26 97.38C17.01 96.97 16.73 96.57 16.43 96.2C15.7 95.18 15.32 93.95 15.32 92.7C15.32 91.44 15.72 90.22 16.45 89.2C17.18 88.18 18.22 87.41 19.4 87.01C20.59 86.61 21.88 86.59 23.08 86.95C27.14 88.21 28.65 92.95 26.08 96.43C24.79 98.16 24.82 99.22 26.43 100.15C27.59 100.84 28.61 101.76 29.41 102.85C30.21 103.94 30.79 105.17 31.11 106.49C31.43 107.8 31.48 109.17 31.26 110.5C31.04 111.83 30.56 113.11 29.84 114.26C28.98 115.65 29.28 116.62 30.67 117.53C31.81 118.27 32.9 119.1 33.93 120.01C34.66 120.64 35.07 122.03 36.03 121.9C36.9 121.79 37.63 120.76 38.47 120.21C39.06 119.83 38.93 119.55 38.56 119.1C37.47 117.74 36.22 116.54 34.82 115.51C34.18 115.07 34.18 114.69 34.43 114.04C35.73 110.88 35.8 107.34 34.6 104.14C33.87 102.07 33.97 101.78 35.87 100.57C36.1 100.42 36.35 100.28 36.59 100.14C38.54 98.93 38.7 98.42 37.82 96.31C37.43 95.42 37.38 94.41 37.68 93.48C37.99 92.56 38.62 91.77 39.47 91.29C40.2 90.86 41.05 90.68 41.9 90.76C42.75 90.85 43.54 91.2 44.18 91.77C44.81 92.34 45.24 93.09 45.41 93.93C45.58 94.76 45.48 95.62 45.12 96.39C44.3 98.33 44.49 98.97 46.29 100.05C47.08 100.52 47.83 101.08 48.5 101.7C49 102.16 49.07 102.52 48.8 103.14C47.99 104.86 47.56 106.73 47.52 108.62C47.49 110.52 47.85 112.4 48.59 114.15C48.83 114.75 48.76 115.08 48.24 115.44C46.93 116.33 45.88 117.5 44.78 118.63C44.02 119.41 43.8 119.98 44.96 120.57C45.47 120.84 45.95 121.19 46.37 121.59C46.92 122.09 47.29 122.16 47.8 121.48C48.98 119.99 50.42 118.73 52.05 117.74C53.9 116.55 54.07 115.8 52.99 113.87C51.72 111.66 51.34 109.06 51.92 106.58C52.49 104.11 53.99 101.94 56.1 100.53C58.25 99.08 58.38 98.37 56.85 96.27C55.98 95.09 55.57 93.63 55.71 92.18C55.84 90.72 56.5 89.36 57.56 88.35C58.63 87.35 60.02 86.76 61.48 86.71C62.95 86.66 64.38 87.14 65.51 88.06C68.11 90.17 68.49 93.69 66.43 96.48C65.18 98.16 65.25 99.25 66.85 100.2C68 100.89 69 101.81 69.8 102.89C70.59 103.97 71.17 105.19 71.48 106.5C71.8 107.8 71.85 109.15 71.64 110.48C71.43 111.8 70.96 113.07 70.26 114.21C69.33 115.7 69.61 116.61 71.08 117.56C72.22 118.32 73.31 119.15 74.34 120.04C75.08 120.68 75.41 122.09 76.45 121.9C77.33 121.74 78.05 120.76 78.89 120.2C79.4 119.86 79.36 119.62 78.99 119.18C77.88 117.8 76.6 116.56 75.17 115.51C74.62 115.12 74.5 114.78 74.77 114.13C76.07 111.01 76.17 107.52 75.06 104.34C74.39 102.31 74.4 102.26 76.15 100.92C76.46 100.67 76.8 100.45 77.14 100.24C79.4 98.9 79.5 98.62 78.57 96.21C78.33 95.61 78.24 94.96 78.3 94.32C78.37 93.68 78.59 93.06 78.95 92.53C79.31 91.99 79.79 91.55 80.36 91.24C80.93 90.93 81.57 90.77 82.21 90.77C85.2 90.72 87.09 93.61 85.92 96.41C85.09 98.39 85.27 98.96 87.09 100.06C87.78 100.47 88.43 100.94 89.04 101.46C89.54 101.9 89.67 102.24 89.35 102.89C87.78 106.15 87.44 109.59 88.66 112.97C89.24 114.61 88.93 115.4 87.62 116.35C86.36 117.25 85.36 118.48 84.24 119.56C84.26 114.3 84.28 109.03 84.29 103.77C84.29 100.76 84.29 100.8 81.31 100.77C80.43 100.77 80.27 101.07 80.28 101.87C80.31 107.26 80.28 112.65 80.28 118.04C80.28 121.05 80.28 121.01 83.28 121.02C84.17 121.02 84.45 120.74 84.22 119.92C85.22 120.21 85.91 120.98 86.69 121.58C87.32 122.08 87.67 122.14 88.2 121.44C89.36 119.99 90.77 118.75 92.36 117.79C94.25 116.58 94.43 115.81 93.3 113.82C92.19 111.93 91.76 109.71 92.08 107.54C92.54 104.41 94.14 102.02 96.79 100.3C98.49 99.19 98.64 98.21 97.42 96.61C97.33 96.48 97.23 96.36 97.13 96.23C96.41 95.21 96.02 93.98 96.02 92.73C96.02 91.47 96.41 90.25 97.13 89.22C97.87 88.21 98.9 87.44 100.09 87.04C101.28 86.64 102.56 86.61 103.76 86.97C104.69 87.25 105.54 87.75 106.23 88.43C106.93 89.1 107.45 89.94 107.75 90.86C108.05 91.78 108.13 92.76 107.97 93.72C107.81 94.68 107.42 95.58 106.84 96.35C105.37 98.35 105.51 99.13 107.62 100.53C108.64 101.18 109.52 102.04 110.2 103.03C112.54 106.53 112.73 110.15 110.75 113.86C109.66 115.9 109.81 116.56 111.75 117.81C113.34 118.78 114.74 120.02 115.9 121.47C116.38 122.11 116.74 122.13 117.33 121.62C118.09 120.96 118.91 120.39 119.73 119.78C118.65 118.25 117.33 116.89 115.83 115.77Z" fill="#999999" fill-opacity="1.000000" fill-rule="nonzero"/>
		<path id="Vector" d="M9.68 26.02C13.52 26.54 17.41 26.09 20.54 26.22C24.49 26.22 27.71 26.22 30.93 26.22C35.29 26.19 38.66 23.53 39.38 19.59C40.09 15.64 38.01 12.13 33.92 10.51C33.72 10.44 33.54 10.31 33.4 10.14C33.27 9.98 33.18 9.78 33.15 9.56C31.92 4.64 28.87 1.41 23.89 0.33C18.63 -0.81 14.42 1.07 11.3 5.41C11.17 5.63 10.98 5.81 10.76 5.94C10.54 6.08 10.29 6.15 10.04 6.16C7.8 6.3 5.7 7.27 4.14 8.86C1.26 11.71 0.3 15.16 1.48 19.03C2.71 23.04 5.51 25.46 9.68 26.02ZM8.63 10.71C9.48 10.24 10.45 10.02 11.42 10.07C12.85 10.21 13.63 9.55 14.27 8.36C15.56 5.85 17.67 4.47 20.46 4.11C22.52 3.87 24.59 4.45 26.24 5.7C27.89 6.96 28.99 8.81 29.3 10.86C29.35 11.22 29.38 11.58 29.43 11.94C29.63 13.38 30.15 13.91 31.55 14.12C34.06 14.48 35.59 16.13 35.45 18.31C35.31 20.63 33.59 22.13 31.03 22.14C27.77 22.14 24.51 22.14 21.24 22.14C17.86 22.14 14.47 22.18 11.09 22.14C9.76 22.11 8.46 21.63 7.42 20.79C6.39 19.95 5.66 18.78 5.36 17.47C5.06 16.14 5.22 14.75 5.81 13.52C6.41 12.29 7.4 11.3 8.63 10.71Z" fill="#999999" fill-opacity="1.000000" fill-rule="nonzero"/>
		<path id="Vector" d="M92.23 26.2C95.49 26.25 98.76 26.2 102.02 26.2L111.81 26.2C117.59 26.2 121.69 22.24 122.32 17.06C122.96 12.03 118.79 6.64 113.73 6.18C113.36 6.16 113 6.05 112.68 5.87C112.36 5.68 112.08 5.42 111.88 5.11C108.93 1.16 104.94 -0.62 100.07 0.18C94.93 1.01 91.67 4.18 90.3 9.18C90.24 9.52 90.08 9.84 89.85 10.1C89.63 10.36 89.33 10.56 89 10.66C86.01 11.85 84.23 14.1 83.95 17.29C83.54 22.38 87.08 26.14 92.23 26.2ZM91.73 14.13C93.38 13.9 93.83 13.35 94.06 11.2C94.36 8.43 95.77 6.38 98.17 5.04C99.08 4.52 100.09 4.19 101.13 4.07C102.17 3.94 103.23 4.03 104.24 4.32C105.24 4.6 106.19 5.09 107 5.75C107.82 6.4 108.5 7.22 109 8.14C109.74 9.52 110.62 10.08 112.21 10.1C112.99 10.1 113.77 10.26 114.5 10.56C115.23 10.87 115.88 11.32 116.43 11.88C116.98 12.44 117.42 13.11 117.71 13.84C118 14.57 118.14 15.36 118.12 16.14C118.1 19.5 115.49 22.09 112.01 22.15C108.7 22.19 105.4 22.15 102.1 22.15C98.8 22.15 95.49 22.15 92.19 22.15C89.76 22.15 88.05 20.57 87.92 18.31C87.8 16.15 89.34 14.46 91.73 14.14L91.73 14.13Z" fill="#999999" fill-opacity="1.000000" fill-rule="nonzero"/>
		<path id="Vector" d="M104.04 95.56C104.04 92.74 104.04 92.78 101.16 92.72C100.22 92.7 99.96 92.96 99.97 93.91C100.02 98.5 100 103.07 100 107.67L99.7 107.84C99.13 107.23 98.53 106.64 98.01 106C97.54 105.44 97.21 105.52 96.78 106.03C96.12 106.83 94.78 107.44 94.8 108.31C94.81 109.05 96.06 109.76 96.74 110.48C96.79 110.54 96.85 110.6 96.92 110.65C99.54 112.47 100.37 114.94 100.06 118.11C99.77 120.98 100 120.95 102.85 121.02C103.93 121.05 104.06 120.67 104.06 119.72C104.02 111.67 104.04 103.62 104.04 95.56Z" fill="#999999" fill-opacity="1.000000" fill-rule="nonzero"/>
		<path id="Vector" d="M23.41 95.91C23.41 92.63 23.41 92.65 20.12 92.73C19.47 92.73 19.33 92.94 19.34 93.55C19.38 95.28 19.34 97.03 19.34 98.75L19.34 108.08C18.5 107.23 17.85 106.59 17.23 105.93C16.92 105.58 16.7 105.49 16.26 105.86C13.68 108.07 13.67 108.07 16.02 110.42C16.12 110.54 16.23 110.65 16.36 110.76C18.94 112.52 19.66 114.95 19.39 118.02C19.13 121.02 19.34 120.99 22.31 121.03C23.25 121.03 23.42 120.72 23.42 119.86C23.4 111.87 23.41 103.9 23.41 95.91Z" fill="#999999" fill-opacity="1.000000" fill-rule="nonzero"/>
		<path id="Vector" d="M62.8 92.74C62.03 92.8 61.27 92.8 60.5 92.74C59.79 92.68 59.64 92.96 59.65 93.62C59.69 96.04 59.65 98.45 59.65 100.87L59.65 107.69L59.37 107.8L57.53 105.91C57.27 105.65 57.05 105.35 56.66 105.78C55.9 106.61 54.7 107.3 54.45 108.25C54.26 109 55.67 109.64 56.3 110.4C56.4 110.53 56.51 110.64 56.64 110.74C59.17 112.52 59.99 114.9 59.7 118C59.42 121.1 59.64 121.06 62.75 121C63.4 121 63.66 120.86 63.66 120.14C63.64 111.3 63.64 102.44 63.66 93.57C63.7 92.87 63.46 92.7 62.8 92.74Z" fill="#999999" fill-opacity="1.000000" fill-rule="nonzero"/>
		<path id="Vector" d="M43.55 110.88L43.55 103.76C43.55 100.76 43.55 100.8 40.58 100.76C39.65 100.76 39.45 101.02 39.46 101.91C39.5 107.25 39.48 112.6 39.48 117.96C39.48 121.08 39.48 121.05 42.64 121.02C43.42 121.02 43.55 120.75 43.55 120.05C43.53 116.99 43.55 113.93 43.55 110.88Z" fill="#999999" fill-opacity="1.000000" fill-rule="nonzero"/>
	</g>
</svg>
