<svg width="126.971268" height="122.000000" viewBox="0 0 126.971 122" fill="none" xmlns="http://www.w3.org/2000/svg" xmlns:xlink="http://www.w3.org/1999/xlink">
	<desc>
			Created with Pixso.
	</desc>
	<defs>
		<clipPath id="clip12_2">
			<rect id="Layer_1" rx="0.000000" width="125.971268" height="121.000000" transform="translate(0.500000 0.500000)" fill="white" fill-opacity="0"/>
		</clipPath>
	</defs>
	<rect id="Layer_1" rx="0.000000" width="125.971268" height="121.000000" transform="translate(0.500000 0.500000)" fill="#FFFFFF" fill-opacity="0"/>
	<g clip-path="url(#clip12_2)">
		<path id="Vector" d="M124.39 62.6C122.37 62.63 120.35 62.61 118.32 62.6C117.58 62.6 116.91 62.8 116.45 63.38C115.06 65.12 113.65 66.86 112.36 68.67C111.73 69.55 111.86 70.56 112.54 71.44C113.21 72.32 114.16 72.54 115.2 72.27C115.56 72.16 115.89 71.98 116.18 71.74C116.46 71.49 116.69 71.19 116.86 70.85C118.31 68.09 120.51 66.99 123.59 67.55C125.09 67.83 126.21 67.15 126.97 65.86L126.97 64.37C126.4 63.37 125.7 62.58 124.39 62.6Z" fill="#FFFFFF" fill-opacity="1.000000" fill-rule="nonzero"/>
		<path id="Vector" d="M104.23 82.97C103.1 82.11 101.69 82.35 100.65 83.63C99.69 84.82 98.75 86.02 97.83 87.25C97.69 87.47 97.49 87.65 97.25 87.77C97.02 87.89 96.76 87.94 96.49 87.93C93.44 87.9 90.38 87.9 87.32 87.93C86.67 87.93 86.4 87.74 86.22 87.09C83.51 77.69 80.77 68.3 78.01 58.92C77.83 58.3 77.96 58.07 78.51 57.78C79.31 57.39 80.02 56.83 80.59 56.14C81.16 55.46 81.58 54.66 81.83 53.81C83.17 49.38 80 45.23 75.18 45.16C74.27 45.15 73.87 44.89 73.66 44.02C73.3 42.53 72.84 41.08 72.42 39.61C71.86 37.69 70.66 36.85 69.12 37.29C67.66 37.71 67.11 39.07 67.65 40.94C67.95 42.01 68.26 43.08 68.56 44.16C68.65 44.46 68.91 44.84 68.58 45.06C68.42 45.15 68.23 45.19 68.04 45.19C67.86 45.18 67.67 45.13 67.51 45.03C67.24 44.85 66.99 44.64 66.77 44.4C64.32 42.05 61.9 39.68 59.4 37.39C58.52 36.59 58.44 36.25 59.45 35.46C61.39 33.94 62.8 31.86 63.5 29.51C64.2 27.15 64.15 24.64 63.36 22.31C62.59 19.96 61.1 17.9 59.12 16.43C57.13 14.96 54.73 14.13 52.26 14.08C49.82 14 47.42 14.67 45.38 16.01C43.35 17.34 41.77 19.27 40.86 21.53C38.96 26.3 39.95 30.6 43.3 34.54C42.93 34.71 42.57 34.92 42.24 35.16C41.66 35.66 41.37 35.54 40.96 34.88C38.76 31.39 34.8 29.91 31.09 31.15C27.29 32.42 24.95 36.05 25.3 40.25C25.4 41.38 25.8 42.48 24.62 43.33C24.37 43.5 24.36 44.01 24.29 44.37C23.83 46.89 23.39 49.41 22.95 51.93C22.22 56.16 21.41 60.39 20.82 64.65C20.59 66.21 20.95 67.8 21.83 69.1C22.72 70.4 24.06 71.32 25.59 71.67C27.47 72.14 29.38 72.57 31.31 72.6C32.06 72.6 32.08 72.89 32.04 73.46C31.82 76.85 31.61 80.24 31.41 83.62C31.36 84.24 31.2 84.85 30.91 85.4C29.12 89.07 27.37 92.76 25.56 96.42C24.42 98.72 24.13 101.07 24.98 103.5C25.23 104.19 25.07 104.43 24.37 104.33C22.3 104 20.65 104.87 18.99 106C15.88 108.1 12.68 110.06 9.51 112.09C6.77 113.84 4.02 115.59 1.27 117.35C0.31 117.97 -0.16 118.86 0.07 119.99C0.29 121.06 1 121.73 2.06 121.96C2.95 122.16 3.66 121.71 4.36 121.26C10.27 117.48 16.18 113.7 22.09 109.92C22.74 109.49 23.5 109.27 24.28 109.29C35.85 109.31 47.42 109.29 58.99 109.32C59.59 109.34 60.18 109.24 60.73 109.02C61.29 108.8 61.79 108.47 62.21 108.04C67.09 103.34 72.04 98.69 76.92 93.98C77.26 93.61 77.68 93.32 78.14 93.13C78.61 92.94 79.11 92.85 79.61 92.87C85.69 92.93 91.76 92.87 97.84 92.92C99.15 92.92 100.12 92.49 100.91 91.42C102.08 89.82 103.35 88.3 104.55 86.72C105.55 85.38 105.41 83.86 104.23 82.97ZM44.88 25.78C44.99 22.03 48.25 18.95 52.02 19.02C53.9 19.06 55.69 19.83 57 21.18C58.31 22.54 59.03 24.35 59 26.23C58.98 27.16 58.78 28.08 58.41 28.93C58.03 29.78 57.5 30.55 56.82 31.2C56.15 31.84 55.36 32.35 54.49 32.68C53.63 33.02 52.7 33.18 51.77 33.16C47.79 33.06 44.76 29.83 44.88 25.78ZM38.51 61.69C39.53 55.9 40.47 50.11 41.5 44.33C42.17 40.52 44.86 38.39 49.16 38.08C51.55 37.91 53.58 38.55 55.33 40.32C58.25 43.25 61.31 46.04 64.28 48.92C64.66 49.32 65.13 49.64 65.64 49.84C66.16 50.05 66.71 50.15 67.26 50.12C69.91 50.08 72.55 50.09 75.2 50.12C76.57 50.14 77.41 51.1 77.1 52.25C76.8 53.4 75.93 53.64 74.89 53.64C72.16 53.64 69.44 53.64 66.71 53.64C64.06 53.64 61.42 53.62 58.77 53.65C58.45 53.67 58.12 53.62 57.82 53.5C57.51 53.39 57.23 53.21 57 52.99C55.74 51.85 54.44 50.75 53.16 49.65C51.72 48.41 50.22 48.39 49.23 49.56C48.24 50.73 48.46 52.13 49.94 53.43C50.84 54.22 51.72 55.04 52.67 55.77C53.36 56.28 53.32 56.6 52.7 57.14C49.78 59.69 46.35 61.12 42.63 61.88C41.5 62.12 40.34 62.23 39.2 62.4C38.61 62.48 38.39 62.37 38.51 61.69ZM33.77 35.73C35.74 35.76 37.28 37.4 37.28 39.46C37.27 41.52 35.7 43.19 33.75 43.19C31.76 43.19 30.16 41.47 30.19 39.36C30.22 37.26 31.77 35.69 33.77 35.73ZM30.87 67.62C29.62 67.39 28.22 67.18 26.86 66.86C25.72 66.6 25.6 65.69 25.76 64.71C26.29 61.57 26.82 58.44 27.36 55.3C27.75 53.07 28.18 50.83 28.52 48.59C28.65 47.69 28.91 47.32 29.91 47.56C31.55 47.94 33.23 48.2 34.9 48.47C35.49 48.56 35.76 48.69 35.64 49.39C34.65 54.97 33.71 60.55 32.76 66.12C32.58 67.11 32.06 67.68 30.87 67.62ZM31.75 104.06C29.72 103.32 28.85 101.02 29.85 98.91C31.68 95.08 33.5 91.24 35.44 87.45C36.21 85.96 36.31 84.38 36.43 82.78C36.55 81.04 36.65 79.32 36.76 77.47C38.93 78.46 41.17 78.75 43.41 79.07C43.96 79.15 44.15 79.37 44.12 79.96C43.92 82.27 43.79 84.58 43.62 86.89C43.57 87.22 43.47 87.54 43.31 87.83C41.04 92.54 38.76 97.26 36.47 101.97C35.48 103.97 33.63 104.77 31.75 104.06ZM59.14 104.06C59.03 104.16 58.9 104.23 58.76 104.27C58.63 104.31 58.48 104.33 58.34 104.31L41.02 104.31C40.97 103.75 41.29 103.39 41.48 103C43.1 99.61 44.59 96.15 46.42 92.89C48.13 89.82 48.82 86.61 48.84 83.18C48.84 82.52 48.93 81.85 48.95 81.19C48.97 80.52 49.15 80.3 49.83 80.65C51.32 81.43 52.86 82.15 54.39 82.87C54.91 83.11 55.22 83.53 55.55 83.95C57.88 86.9 60.22 89.84 62.53 92.81C63.73 94.35 65 95.79 67.03 96.53L59.14 104.06ZM72.4 91.39C70.71 92.75 68.56 92.38 67 90.41C64.27 86.99 61.55 83.55 58.84 80.1C58.37 79.48 57.75 78.97 57.05 78.63C54.93 77.62 52.82 76.56 50.7 75.58C48.45 74.56 45.95 74.59 43.58 74.07C42.53 73.85 41.45 73.77 40.41 73.52C37.93 72.92 36.69 70.71 37.48 67.89C37.66 67.21 38.3 67.44 38.74 67.41C42.63 67.19 46.44 66.26 49.98 64.66C50.99 64.2 51.97 63.67 53.12 63.09C52.94 64.1 52.78 64.95 52.63 65.8C52.32 67.63 52.75 68.48 54.42 69.28C56.86 70.47 59.31 71.65 61.77 72.8C62.41 73.1 62.96 73.54 63.39 74.09C66.48 78.03 69.59 81.94 72.69 85.87C74.2 87.81 74.09 90.04 72.4 91.39L72.4 91.39ZM80.35 87.94C79.21 88.01 78.55 87.85 78.43 86.48C78.31 85.15 77.53 84.02 76.69 82.97C73.33 78.73 69.98 74.48 66.63 70.23C66.15 69.61 65.53 69.12 64.82 68.79C62.69 67.8 60.59 66.73 58.47 65.75C57.87 65.47 57.72 65.16 57.85 64.51C58.2 62.81 58.49 61.1 58.73 59.38C58.82 58.74 59.07 58.57 59.68 58.57C61.74 58.6 63.81 58.57 65.87 58.57C67.89 58.57 69.92 58.59 71.94 58.57C72.51 58.57 72.78 58.71 72.96 59.32C75.63 68.55 78.32 77.77 81.03 86.98C81.25 87.67 81.15 87.9 80.36 87.95L80.35 87.94Z" fill="#FFFFFF" fill-opacity="1.000000" fill-rule="nonzero"/>
		<path id="Vector" d="M118.19 20.27C117.87 19.04 117.3 17.88 116.52 16.88C115.74 15.87 114.76 15.03 113.65 14.41C112.54 13.79 111.32 13.4 110.05 13.26C108.79 13.12 107.51 13.24 106.29 13.61C105.57 13.83 105.18 13.71 104.64 13.15C101.78 10.17 98.3 8.97 94.2 9.67C88.89 10.6 84.88 15.48 84.94 20.95C85.01 26.54 89.11 31.3 94.51 32.09C97.18 32.48 99.87 32.16 102.55 32.28C103.04 32.28 103.54 32.28 104.04 32.28C106.43 32.21 108.84 32.53 111.2 31.99C116.39 30.82 119.58 25.41 118.19 20.27ZM113.35 24.04C113.07 24.98 112.5 25.8 111.72 26.39C110.93 26.98 109.98 27.3 109 27.3C106.82 27.36 104.63 27.31 102.44 27.31C100.33 27.31 98.22 27.39 96.12 27.3C92.41 27.14 89.68 24.1 89.92 20.5C90.16 16.9 93.12 14.25 96.63 14.47C98.93 14.62 100.7 15.71 101.87 17.7C103.29 20.11 104.21 20.37 106.51 18.91C107.29 18.38 108.21 18.12 109.14 18.15C110.08 18.18 110.98 18.5 111.73 19.07C112.48 19.63 113.04 20.4 113.33 21.3C113.62 22.19 113.63 23.14 113.35 24.04Z" fill="#FFFFFF" fill-opacity="1.000000" fill-rule="nonzero"/>
		<path id="Vector" d="M14.98 26C17.39 25.99 19.69 25.03 21.38 23.33C23.08 21.64 24.04 19.33 24.05 16.93C24.05 14.53 23.09 12.23 21.4 10.53C19.7 8.83 17.4 7.87 14.99 7.86C13.8 7.86 12.63 8.1 11.53 8.55C10.43 9.01 9.43 9.67 8.59 10.51C7.75 11.35 7.08 12.35 6.63 13.45C6.18 14.55 5.94 15.73 5.94 16.92C5.94 19.32 6.89 21.62 8.59 23.32C10.28 25.03 12.58 25.99 14.98 26ZM14.98 12.84C16.07 12.84 17.11 13.27 17.88 14.03C18.65 14.8 19.08 15.84 19.08 16.92C19.08 18.01 18.64 19.05 17.88 19.81C17.11 20.58 16.08 21.02 14.99 21.03C13.91 21.02 12.87 20.59 12.1 19.82C11.34 19.05 10.9 18.01 10.9 16.93C10.9 16.39 11 15.86 11.21 15.36C11.41 14.87 11.71 14.42 12.09 14.03C12.47 13.65 12.92 13.35 13.42 13.15C13.92 12.94 14.45 12.84 14.99 12.84L14.98 12.84Z" fill="#FFFFFF" fill-opacity="1.000000" fill-rule="nonzero"/>
		<path id="Vector" d="M14.44 6.32C16.18 6.75 17.46 5.5 17.47 3.32C17.49 0.99 16.18 -0.38 14.4 0.08C13.09 0.43 12.49 1.44 12.5 3.29C12.51 5.06 13.1 5.98 14.44 6.32Z" fill="#FFFFFF" fill-opacity="1.000000" fill-rule="nonzero"/>
		<path id="Vector" d="M13.12 28.55C12.36 29.39 12.23 31.88 12.9 32.89C13.53 33.85 14.45 34.24 15.57 33.99C16.86 33.71 17.46 32.69 17.47 30.76C17.55 29.61 17.28 28.44 15.92 27.88C14.86 27.44 13.89 27.7 13.12 28.55Z" fill="#FFFFFF" fill-opacity="1.000000" fill-rule="nonzero"/>
		<path id="Vector" d="M3.56 12.92C4.23 12.93 4.87 12.67 5.35 12.21C5.83 11.74 6.11 11.11 6.13 10.44C6.15 9.03 4.22 7.31 2.55 7.25C1.89 7.24 1.24 7.5 0.77 7.96C0.29 8.42 0.01 9.06 0 9.72C-0.01 11.15 1.88 12.85 3.56 12.92Z" fill="#FFFFFF" fill-opacity="1.000000" fill-rule="nonzero"/>
		<path id="Vector" d="M26.4 12.92C28.06 12.88 29.99 11.17 29.99 9.75C29.97 9.08 29.7 8.45 29.22 7.99C28.75 7.52 28.11 7.26 27.44 7.26C25.77 7.31 23.85 9 23.85 10.43C23.87 11.1 24.14 11.73 24.62 12.2C25.1 12.66 25.74 12.92 26.4 12.92Z" fill="#FFFFFF" fill-opacity="1.000000" fill-rule="nonzero"/>
		<path id="Vector" d="M3.63 21.1C1.89 21.1 0.03 22.69 0 24.18C-0.01 24.51 0.05 24.83 0.18 25.14C0.3 25.45 0.48 25.73 0.71 25.96C0.94 26.19 1.22 26.38 1.53 26.5C1.83 26.63 2.16 26.69 2.49 26.68C4.15 26.68 6.09 25.02 6.13 23.59C6.13 23.26 6.07 22.94 5.95 22.63C5.82 22.33 5.64 22.05 5.4 21.82C5.17 21.58 4.89 21.4 4.59 21.28C4.28 21.15 3.96 21.09 3.63 21.1Z" fill="#FFFFFF" fill-opacity="1.000000" fill-rule="nonzero"/>
		<path id="Vector" d="M23.85 23.51C23.82 25 25.79 26.69 27.53 26.68C28.17 26.68 28.79 26.43 29.25 25.98C29.71 25.52 29.98 24.91 29.99 24.26C30.02 22.73 28.11 21.08 26.32 21.1C25.67 21.1 25.06 21.35 24.6 21.8C24.14 22.25 23.87 22.86 23.85 23.51Z" fill="#FFFFFF" fill-opacity="1.000000" fill-rule="nonzero"/>
		<path id="Vector" d="M108.35 74.76C107.71 74.76 107.09 75.01 106.63 75.46C106.17 75.91 105.9 76.53 105.89 77.17C105.89 77.84 106.15 78.48 106.61 78.95C107.08 79.42 107.71 79.7 108.38 79.7C109.05 79.69 109.68 79.41 110.14 78.93C110.6 78.45 110.85 77.8 110.84 77.14C110.82 76.49 110.55 75.88 110.08 75.44C109.62 74.99 109 74.75 108.35 74.76Z" fill="#FFFFFF" fill-opacity="1.000000" fill-rule="nonzero"/>
	</g>
</svg>
