<svg width="121.996826" height="122.000000" viewBox="0 0 121.997 122" fill="none" xmlns="http://www.w3.org/2000/svg" xmlns:xlink="http://www.w3.org/1999/xlink">
	<desc>
			Created with Pixso.
	</desc>
	<defs>
		<clipPath id="clip12_70">
			<rect id="Layer_1" rx="0.000000" width="120.996811" height="121.000000" transform="translate(0.500000 0.500000)" fill="white" fill-opacity="0"/>
		</clipPath>
	</defs>
	<rect id="Layer_1" rx="0.000000" width="120.996811" height="121.000000" transform="translate(0.500000 0.500000)" fill="#FFFFFF" fill-opacity="0"/>
	<g clip-path="url(#clip12_70)">
		<path id="Vector" d="M121.97 81.35C121.98 81.08 121.93 80.81 121.84 80.56C121.74 80.31 121.59 80.08 121.4 79.89C121.21 79.7 120.98 79.55 120.73 79.45C120.48 79.35 120.21 79.31 119.94 79.32C118.79 79.32 117.99 80.13 117.93 81.37C117.91 81.92 117.93 82.47 117.93 83.3C117.55 82.79 117.38 82.57 117.21 82.35C100.45 59.81 83.7 37.27 66.94 14.73C65.64 12.99 63.87 11.38 63.22 9.41C62.57 7.45 63.01 5.09 63.06 2.91C63.09 1.68 62.79 0.68 61.71 -0.01L60.28 -0.01C59.25 0.65 58.92 1.58 58.94 2.79C58.97 5.05 59.4 7.48 58.72 9.53C58.05 11.57 56.23 13.15 54.9 14.94C54.06 16.08 53.2 17.22 52.27 18.47C51.82 17.13 51.54 15.86 50.94 14.72C48.08 9.27 43.59 6.24 37.41 6.16C31.18 6.08 26.58 9.02 23.63 14.48C23.17 15.35 22.99 15.37 22.28 14.77C20.57 13.32 18.46 12.44 16.23 12.23C14.01 12.02 11.77 12.5 9.82 13.6C7.88 14.67 6.3 16.29 5.29 18.26C4.28 20.24 3.88 22.47 4.15 24.67C4.2 25.09 4.26 25.39 3.82 25.66C2.07 26.73 0.8 28.43 0.27 30.4C0.22 30.56 0.18 30.7 -0.01 30.72L-0.01 34.3C0.35 34.39 0.29 34.74 0.38 34.97C1.7 38.63 4.56 40.66 8.54 40.67C17.08 40.68 25.62 40.68 34.15 40.67L35.76 40.67C25.17 54.91 14.72 68.97 4.14 83.2C3.94 81.66 4.46 79.95 2.58 79.38C1.42 79.02 0.67 79.76 -0.01 80.54L-0.01 90.31C1.77 92.04 2.72 91.96 4.23 89.92C6.35 87.06 8.48 84.19 10.62 81.32C11.07 80.71 11.53 80.09 12.17 79.24C12.17 81.15 12.26 82.74 12.16 84.31C11.85 88.8 15.02 91.64 19.29 91.54C28.38 91.38 37.48 91.49 46.57 91.5C46.94 91.5 47.34 91.39 47.72 91.6C43.66 98.2 44.56 104.22 49.95 109.81C48.09 109.81 46.39 109.79 44.7 109.81C43.88 109.79 43.08 109.94 42.33 110.24C41.57 110.54 40.89 110.99 40.31 111.56C39.73 112.13 39.28 112.81 38.97 113.56C38.66 114.31 38.5 115.11 38.5 115.92C38.5 116.73 38.67 117.53 38.99 118.28C39.31 119.02 39.77 119.7 40.35 120.26C40.93 120.83 41.62 121.27 42.38 121.56C43.13 121.86 43.94 122 44.75 121.98C55.58 122 66.43 121.98 77.27 121.98C78.3 121.98 79.32 121.71 80.22 121.2C81.4 120.55 82.32 119.53 82.85 118.3C83.38 117.07 83.49 115.7 83.16 114.4C82.85 113.1 82.11 111.94 81.06 111.11C80.01 110.27 78.72 109.82 77.38 109.8C75.82 109.77 74.26 109.8 72.45 109.8C73.81 108.44 74.85 107.21 75.6 105.76C77.83 101.48 77.51 97.02 76.44 92.54C76.21 91.59 76.36 91.46 77.28 91.46C85.86 91.5 94.44 91.49 103.01 91.48C107.32 91.48 109.8 89 109.81 84.7C109.81 82.98 109.81 81.26 109.81 79.24C110.26 79.84 110.52 80.18 110.76 80.51C113.23 83.82 115.69 87.13 118.15 90.44C118.75 91.25 119.51 91.71 120.51 91.39C120.94 91.29 121.32 91.03 121.58 90.68C121.85 90.32 121.98 89.89 121.96 89.44C121.99 86.75 122.01 84.05 121.97 81.35ZM23.06 36.61C18.18 36.61 13.29 36.61 8.41 36.61C6.69 36.61 5.33 35.94 4.51 34.38C3.78 32.95 3.93 31.54 4.8 30.22C5.34 29.47 6.11 28.92 6.99 28.65C8.58 28.08 8.99 27.24 8.53 25.63C7.22 21.04 9.83 16.96 14.5 16.32C17.48 15.91 20.61 17.8 21.8 20.74C21.92 21.03 22.01 21.33 22.12 21.63C22.25 22.07 22.54 22.45 22.93 22.69C23.32 22.94 23.79 23.03 24.24 22.96C24.71 22.95 25.15 22.75 25.48 22.42C25.8 22.1 25.99 21.65 26.01 21.19C26.19 19.4 26.52 17.69 27.39 16.06C28.66 13.7 30.74 11.88 33.25 10.93C35.75 9.97 38.52 9.95 41.04 10.86C46.23 12.77 49.29 18.21 48.17 23.51C48.08 23.97 47.88 24.4 47.6 24.78C44.83 28.5 42.04 32.21 39.32 35.96C38.91 36.53 38.45 36.64 37.82 36.64C32.9 36.6 27.98 36.61 23.06 36.61ZM28.71 81.31C28.57 78.58 28.16 75.9 28.76 73.25C29.05 71.97 29.7 70.79 30.63 69.86C33.61 66.83 36.62 63.84 39.62 60.84C39.65 60.77 39.7 60.71 39.77 60.67C39.83 60.62 39.9 60.59 39.97 60.58C40.04 60.56 40.12 60.56 40.2 60.58C40.27 60.59 40.34 60.63 40.4 60.67L28.71 81.31ZM76.89 113.87C78.07 113.87 78.91 114.28 79.22 115.46C79.58 116.78 78.54 117.92 76.95 117.93C72.58 117.93 68.22 117.93 63.85 117.93L60.87 117.93C55.59 117.93 50.31 117.93 45.03 117.93C43.28 117.93 42.25 116.55 42.87 115.12C43.29 114.17 44.08 113.87 45.1 113.87C49.79 113.89 54.47 113.87 59.16 113.87C65.06 113.87 70.98 113.89 76.89 113.87ZM63.29 104.16C64.87 104.58 66.55 104.46 68.05 103.8C68.37 106.61 66.77 108.75 64.12 109.49C60.67 110.44 58.07 109.17 55.94 106.62C54.44 104.82 54.72 102.67 56.54 101.18C56.7 101.06 56.86 100.93 57.01 100.82C59.21 99.34 61.49 97.95 62.37 95.03C63.1 96.74 62.98 98.31 61.71 99.99C60.16 102.01 61.28 103.61 63.29 104.16ZM72.32 103.13C71.79 101.8 71.45 100.42 70.59 99.25C69.4 97.66 68.4 97.51 66.77 98.75C67.42 94.26 65.63 90.93 61.99 88.44C61.28 87.95 60.56 87.77 59.77 88.18C58.98 88.6 58.49 89.36 58.64 90.25C59.18 93.62 57.69 95.77 54.82 97.41C52.27 98.88 50.95 101.29 50.87 104.61C49.1 101.76 48.84 99.06 49.87 96.22C50.32 95.03 51.01 93.94 51.9 93.03C54.66 90.14 54.34 86.88 50.98 84.47C51.8 84.15 52.55 84.32 53.29 84.43C55.1 84.71 56.24 83.62 55.89 81.82C55.52 80.23 55.56 78.57 56 77C56.41 75.72 57.27 74.64 58.43 73.95C59.58 73.26 60.94 73.01 62.26 73.24C62.64 73.31 63.01 73.31 62.87 73.95C62.02 77.55 63.23 80.6 65.62 83.22C67.49 85.28 69.47 87.25 70.87 89.67C73.36 93.92 73.81 98.43 72.32 103.13ZM86.36 87.43C82.63 87.43 78.89 87.43 75.16 87.43C74.91 87.46 74.66 87.41 74.43 87.3C74.21 87.19 74.02 87.01 73.89 86.8C72.38 84.56 70.65 82.47 68.74 80.57C67.85 79.65 67.22 78.52 66.89 77.3C66.52 75.93 66.63 74.75 67.69 73.69C68.76 72.63 68.52 71.07 67.25 70.5C64.28 69.17 61.22 68.51 58.01 69.7C56.1 70.4 54.45 71.68 53.29 73.35C52.13 75.03 51.52 77.02 51.53 79.06C51.53 79.91 51.42 80.23 50.49 80.27C48.78 80.32 47.28 81.06 45.97 82.15C44.09 83.71 44.33 85.9 46.49 87.08C46.59 87.13 46.83 87.1 46.77 87.4L29.94 87.4L60.99 32.59C71.39 50.94 81.69 69.1 92.07 87.43L86.36 87.43ZM93.28 81.31C89.36 74.4 85.44 67.49 81.52 60.57C82.07 60.37 82.29 60.76 82.56 61.02C85.39 63.85 88.22 66.68 91.04 69.52C92.53 71 93.42 72.78 93.48 74.9C93.55 77.04 93.48 79.18 93.28 81.31ZM105.74 84.79C105.74 86.74 105.03 87.43 103.07 87.43C101.59 87.43 100.12 87.36 98.66 87.46C97.7 87.52 97.56 87.14 97.58 86.32C97.65 84.41 97.6 82.5 97.6 80.6C97.6 79.09 97.58 77.58 97.6 76.08C97.66 72.22 96.31 68.99 93.56 66.26C87.01 59.78 80.52 53.24 74 46.73C73.49 46.23 73.06 45.66 72.71 45.04C69.71 39.74 66.7 34.43 63.68 29.12C63.21 28.34 62.97 27.44 63.01 26.53C63.07 25.34 63.04 24.15 63.01 22.96C63.01 21.27 62.23 20.3 60.95 20.32C59.66 20.34 58.79 21.3 58.97 22.89C59.38 26.51 58.24 29.58 56.35 32.59C53.85 36.58 51.65 40.77 49.34 44.87C48.94 45.6 48.44 46.27 47.85 46.85C41.38 53.3 34.95 59.79 28.46 66.21C25.67 68.97 24.32 72.22 24.36 76.12C24.4 79.5 24.32 82.87 24.39 86.25C24.42 87.28 24.1 87.5 23.14 87.45C21.63 87.37 20.12 87.45 18.61 87.42C17.04 87.4 16.25 86.65 16.24 85.09C16.21 81.51 16.24 77.94 16.22 74.37C16.22 73.73 16.53 73.33 16.85 72.9L46.04 33.64C50.74 27.31 55.46 20.97 60.17 14.64C60.97 13.57 60.97 13.57 61.79 14.68C76.18 34.03 90.58 53.38 104.99 72.73C105.49 73.38 105.76 74.19 105.73 75.01C105.71 78.28 105.75 81.53 105.74 84.79Z" fill="#999999" fill-opacity="1.000000" fill-rule="nonzero"/>
		<path id="Vector" d="M91.01 5.48C92.53 6.16 93.94 7.07 95.19 8.18C103.89 15.95 101.85 29.88 91.25 35.02C90.28 35.5 89.42 36.03 89.48 37.28C89.54 38.48 90.4 38.94 91.37 39.31C94.61 40.56 98.11 40.95 101.54 40.44C110.86 39.11 118.33 31.12 118.87 21.95C119.46 11.87 113.3 3.17 103.81 0.65C102.88 0.41 101.89 0.45 101.01 -0.02L96.01 -0.02C94.42 0.56 92.73 0.71 91.18 1.38C90.22 1.79 89.51 2.34 89.48 3.43C89.46 4.52 90.12 5.09 91.01 5.48ZM111.46 10.37C113.49 13.01 114.66 16.21 114.82 19.53C114.98 22.86 114.12 26.15 112.36 28.98C109.02 34.26 102.29 37.5 96.86 36.35C101.9 32.16 104.66 26.87 104.66 20.34C104.67 13.8 101.93 8.5 96.9 4.31C100.34 3.45 107.28 4.91 111.47 10.38L111.46 10.37Z" fill="#999999" fill-opacity="1.000000" fill-rule="nonzero"/>
		<path id="Vector" d="M27.68 100.08C26.68 99.29 25.52 99.51 24.61 100.7C23.92 101.59 23.25 102.5 22.38 103.67C22.38 101.57 22.38 99.8 22.38 98.04C22.38 96.49 21.53 95.52 20.28 95.56C19.02 95.59 18.32 96.5 18.32 98.03C18.32 99.79 18.32 101.56 18.32 103.69C17.44 102.53 16.79 101.66 16.13 100.8C15.14 99.52 14.01 99.26 12.98 100.08C11.96 100.89 11.94 101.99 12.87 103.22C14.71 105.7 16.56 108.17 18.43 110.64C19.64 112.23 21 112.23 22.22 110.64C24.13 108.16 25.99 105.64 27.86 103.13C28.69 102.01 28.6 100.81 27.68 100.08Z" fill="#999999" fill-opacity="1.000000" fill-rule="nonzero"/>
		<path id="Vector" d="M108.93 100.02C107.94 99.3 106.85 99.54 105.95 100.69C105.25 101.58 104.58 102.49 103.89 103.4L103.67 103.28C103.67 101.42 103.69 99.56 103.67 97.7C103.65 96.45 102.86 95.61 101.74 95.56C100.62 95.51 99.69 96.39 99.62 97.65C99.59 98.25 99.62 98.84 99.62 99.44L99.62 103.67C98.74 102.49 98.08 101.59 97.41 100.71C96.5 99.53 95.34 99.29 94.33 100.08C93.39 100.79 93.29 101.99 94.13 103.13C96 105.64 97.87 108.15 99.77 110.64C100.99 112.23 102.35 112.26 103.55 110.68C105.45 108.19 107.33 105.69 109.19 103.17C110.06 101.96 109.95 100.76 108.93 100.02Z" fill="#999999" fill-opacity="1.000000" fill-rule="nonzero"/>
	</g>
</svg>
