<svg width="155.910645" height="28.625488" viewBox="0 0 155.911 28.6255" fill="none" xmlns="http://www.w3.org/2000/svg" xmlns:xlink="http://www.w3.org/1999/xlink">
	<desc>
			Created with Pixso.
	</desc>
	<defs/>
	<path id="Listee Travel" d="M2.15 27.13Q2.81 27.36 3.64 27.36Q5.44 27.36 6.73 26.54Q6.85 26.47 6.96 26.39Q6.98 26.37 7 26.36Q8.33 25.4 9.14 23.72Q10.06 24.42 10.94 25.19Q11.82 25.95 12.82 26.6Q13.82 27.25 15.03 27.67Q16.25 28.09 17.84 28.09Q19.85 28.09 21.33 27.48Q22.81 26.88 23.77 25.89Q24.45 25.19 24.88 24.36Q25.05 24.03 25.19 23.67Q25.58 22.62 25.64 21.55Q25.65 21.36 25.65 21.17Q25.65 20.28 25.43 19.58Q25.22 18.88 24.96 18.38Q24.71 17.87 24.48 17.59Q24.26 17.31 24.25 17.27L23.84 17.6Q23.93 17.73 24.01 17.88Q24.23 18.29 24.33 18.78Q24.47 19.43 24.47 19.9Q24.47 21.22 23.94 22.55Q23.69 23.17 23.35 23.74Q22.96 24.39 22.45 24.96Q22.19 25.26 21.9 25.52Q21.13 26.22 20.17 26.72Q19.91 26.85 19.63 26.96Q18.53 27.39 17.26 27.39Q16.03 27.39 14.99 26.99Q14.77 26.9 14.56 26.81Q13.76 26.45 13.03 25.95Q12.09 25.32 11.21 24.57Q10.32 23.82 9.38 23.12Q9.82 22.01 10.04 20.67Q10.25 19.32 10.25 17.77Q10.25 16.61 10.16 15.44Q10.08 14.28 9.98 13.16Q9.89 12.04 9.8 10.98Q9.72 9.92 9.72 8.95Q9.72 7.48 10.21 6Q10.55 5 11.09 4.14Q11.36 3.72 11.67 3.34Q11.92 3.03 12.19 2.75Q12.99 1.96 14.03 1.4Q14.03 1.4 14.03 1.4Q15.43 0.66 17.22 0.66Q18.25 0.66 19.07 0.98Q19.89 1.29 20.46 1.85Q20.7 2.08 20.89 2.35Q21.17 2.72 21.35 3.15Q21.4 3.26 21.44 3.38Q21.66 4.02 21.66 4.75Q21.66 5.45 21.49 6.06Q21.31 6.68 21.1 7.16Q20.84 7.72 20.54 8.18L21.07 8.56Q21.08 8.52 21.29 8.2Q21.49 7.87 21.72 7.34Q21.96 6.8 22.14 6.1Q22.33 5.4 22.33 4.61Q22.33 4.36 22.3 4.12Q22.23 3.5 21.97 2.91Q21.88 2.69 21.76 2.48Q21.43 1.91 20.94 1.43Q20.26 0.78 19.32 0.39Q18.37 0 17.19 0Q16.4 0 15.4 0.15Q14.4 0.3 13.36 0.75Q12.32 1.19 11.32 1.98Q10.32 2.76 9.54 4.03Q8.76 5.29 8.28 7.1Q7.81 8.9 7.81 11.36Q7.81 12.45 7.91 13.55Q8.01 14.64 8.14 15.76Q8.27 16.88 8.37 18.02Q8.47 19.15 8.47 20.33Q8.47 21.48 8.25 22.38Q7.33 21.84 6.25 21.49Q5.17 21.14 3.87 21.14Q2.06 21.14 1.03 21.98Q0.66 22.28 0.42 22.66Q0 23.36 0 24.31Q0 24.82 0.15 25.26Q0.2 25.39 0.26 25.52Q0.36 25.72 0.48 25.9Q0.7 26.22 1 26.48Q1.48 26.89 2.15 27.13ZM85.27 28.15Q86.76 28.62 88.61 28.62Q91.07 28.62 92.83 27.77Q94.06 27.17 94.98 26.26Q95.37 25.87 95.72 25.42Q96.84 23.92 97.36 21.88Q97.89 19.84 97.89 17.46Q97.89 15.92 97.76 14.38Q97.63 12.83 97.63 11.39Q97.63 9.65 97.98 8.22Q98.33 6.8 98.86 5.69Q99.18 5.77 99.51 5.81Q99.83 5.84 100.16 5.84Q101.54 5.84 102.63 5.47Q103.71 5.1 104.53 4.56Q105.35 4.01 105.94 3.38Q106.52 2.75 106.88 2.19Q107.25 1.64 107.42 1.26Q107.59 0.88 107.61 0.87L106.98 0.66Q106.94 0.71 106.78 1.06Q106.62 1.41 106.29 1.92Q105.95 2.42 105.42 2.99Q104.89 3.57 104.15 4.05Q103.41 4.54 102.42 4.86Q101.44 5.17 100.19 5.17Q99.92 5.17 99.68 5.16Q99.44 5.14 99.18 5.1Q99.63 4.28 100.1 3.67Q100.57 3.05 100.99 2.62Q101.41 2.18 101.72 1.94Q102.04 1.7 102.16 1.64L101.77 1.07Q101.75 1.11 101.42 1.35Q101.1 1.58 100.58 2.05Q100.06 2.51 99.42 3.21Q98.79 3.91 98.16 4.85Q97.37 4.61 96.58 4.23Q95.78 3.86 94.95 3.43Q94.13 3 93.26 2.58Q92.4 2.15 91.48 1.81Q90.55 1.46 89.55 1.25Q88.55 1.04 87.48 1.04Q85.36 1.04 83.72 1.61Q82.08 2.18 80.97 3.16Q80.22 3.81 79.71 4.62Q79.46 5.01 79.27 5.44Q79.07 5.89 78.94 6.36Q78.69 7.25 78.69 8.22Q78.69 9.72 79.27 10.85Q79.81 11.89 80.64 12.61Q80.7 12.66 80.77 12.72Q81.23 13.09 81.74 13.37Q82.25 13.65 82.8 13.83Q83.92 14.2 85 14.2Q86.06 14.2 86.94 13.96Q87.82 13.72 88.55 13.37Q89.27 13.02 89.82 12.6Q90.37 12.18 90.73 11.82Q91.1 11.46 91.29 11.21Q91.48 10.97 91.48 10.95L90.95 10.56Q90.93 10.57 90.59 11Q90.25 11.43 89.61 11.94Q88.96 12.45 88.05 12.87Q87.14 13.29 86.01 13.29Q84.83 13.29 83.84 12.87Q83.16 12.59 82.61 12.15Q82.35 11.94 82.12 11.7Q82 11.58 81.89 11.44Q81.33 10.78 80.99 9.92Q80.59 8.9 80.59 7.69Q80.59 6.64 80.99 5.58Q81.01 5.53 81.03 5.49Q81.43 4.48 82.28 3.66Q83.17 2.8 84.59 2.25Q86.01 1.7 88.04 1.7Q88.11 1.7 88.18 1.71Q89.36 1.73 90.53 2.14Q91.77 2.58 92.98 3.17Q94.19 3.77 95.41 4.4Q96.62 5.02 97.82 5.41Q96.96 6.85 96.37 8.73Q95.78 10.61 95.75 13.05Q95.73 14.04 95.73 15.21Q95.73 16.37 95.68 17.6Q95.63 18.83 95.48 20.08Q95.32 21.32 95.01 22.47Q94.69 23.61 94.17 24.62Q93.67 25.58 92.94 26.29Q92.9 26.33 92.86 26.36Q92.08 27.1 90.97 27.53Q89.87 27.95 88.4 27.95Q86.79 27.95 85.47 27.53Q84.15 27.1 83.2 26.36Q82.42 25.75 81.93 24.97Q81.82 24.79 81.72 24.6Q81.53 24.25 81.41 23.88Q81.19 23.18 81.19 22.42L81.19 22.15Q81.19 22.02 81.22 21.87L80.56 21.8Q80.52 21.96 80.52 22.13L80.52 22.45Q80.52 23.35 80.79 24.16Q80.91 24.54 81.09 24.89Q81.2 25.1 81.32 25.29Q81.86 26.17 82.73 26.85Q83.79 27.68 85.27 28.15ZM153.56 6.54Q153.8 5.33 153.8 4.25Q153.8 3.82 153.7 3.44Q153.6 3.05 153.38 2.76Q153.35 2.72 153.32 2.69Q153.11 2.45 152.8 2.3Q152.44 2.13 151.92 2.13Q151.7 2.13 151.49 2.18Q151.02 2.28 150.6 2.63Q149.99 3.12 149.49 4Q148.98 4.88 148.61 6.09Q148.23 7.29 147.97 8.69Q147.7 10.1 147.57 11.63Q147.45 13.17 147.45 14.73Q147.45 15.56 147.46 16.65Q147.48 17.51 147.55 18.41Q147.48 18.6 147.4 18.8Q147.12 19.58 146.76 20.39Q146.4 21.2 145.95 21.99Q145.5 22.78 144.95 23.38Q144.4 23.99 143.75 24.37Q143.49 24.52 143.2 24.61Q142.79 24.74 142.34 24.74Q142.06 24.74 141.8 24.69Q141.47 24.63 141.15 24.5Q141.13 24.49 141.12 24.49Q140.56 24.25 140.12 23.77Q139.65 23.27 139.35 22.5Q139.04 21.73 138.94 20.67Q139.21 20.73 139.56 20.77Q139.91 20.81 140.3 20.81Q140.71 20.81 141.11 20.73Q141.5 20.66 141.88 20.5Q142.33 20.32 142.73 20.05Q142.99 19.87 143.23 19.64Q143.31 19.57 143.38 19.5Q143.87 18.99 144.18 18.31Q144.54 17.53 144.54 16.57Q144.54 15.66 144.12 15.03Q144.03 14.89 143.92 14.76Q143.72 14.54 143.47 14.38Q142.95 14.06 142.23 14.06Q141.41 14.06 140.56 14.5Q139.7 14.93 139.01 15.76Q138.32 16.59 137.88 17.79Q137.77 18.08 137.69 18.39Q137.05 19.83 136.47 20.61Q135.72 21.65 134.99 21.65Q134.85 21.65 134.72 21.63Q134.57 21.6 134.42 21.55Q134.41 21.54 134.39 21.53Q134.14 21.43 133.94 21.2Q133.72 20.95 133.6 20.55Q133.47 20.14 133.47 19.55Q133.67 19.07 133.86 18.5Q134.05 17.94 134.19 17.38Q134.34 16.81 134.43 16.3Q134.53 15.79 134.53 15.43Q134.53 14.94 134.3 14.79Q134.2 14.73 134.07 14.73Q133.93 14.73 133.66 14.84Q133.38 14.95 133.12 15.31Q132.85 15.67 132.66 16.35Q132.46 17.03 132.46 18.16Q132.46 18.5 132.52 18.97Q132.58 19.44 132.63 19.77Q132.2 20.83 131.67 21.75Q131.14 22.67 130.63 23.36Q130.12 24.04 129.69 24.42Q129.26 24.81 129.02 24.81Q128.82 24.81 128.58 24.41Q128.34 24.01 128.14 23.25Q127.95 22.49 127.81 21.37Q127.67 20.26 127.67 18.85Q127.67 18.21 127.7 17.52Q127.72 16.83 127.81 16.09L127.14 16.03Q126.9 16.57 126.72 17.26Q126.66 17.47 126.61 17.72Q125.99 19.32 125.52 20.39Q125.01 21.56 124.58 22.25Q124.15 22.93 123.79 23.2Q123.43 23.46 123.07 23.48Q123.06 23.48 123.04 23.48Q122.64 23.48 122.38 23.28Q122.23 23.16 122.13 22.97Q121.86 22.47 121.86 21.14Q121.86 20.71 121.91 20.26Q121.97 19.8 122.04 19.37Q122.12 18.95 122.2 18.59Q122.29 18.23 122.38 18.01L121.33 17.67Q121.06 18.43 120.93 19.18Q120.8 19.92 120.8 20.47Q120.56 21.17 120.24 21.83Q119.91 22.49 119.5 22.98Q119.09 23.48 118.61 23.78Q118.24 24 117.85 24.06Q117.72 24.07 117.59 24.07Q117.12 24.07 116.74 23.89Q116.25 23.67 115.91 23.15Q115.28 22.23 115.28 20.47Q115.28 18.69 115.75 17.41Q116.22 16.13 116.9 15.29Q117.57 14.45 118.31 14.06Q119.04 13.67 119.59 13.67Q120.11 13.67 120.49 13.89Q120.64 13.98 120.77 14.1Q120.83 14.16 120.88 14.22Q121.23 14.64 121.23 15.36Q121.23 16.08 120.92 16.57Q120.62 17.07 120.25 17.38Q119.88 17.7 119.55 17.84Q119.21 17.97 119.16 17.97L119.37 18.64Q119.62 18.54 120.06 18.3Q120.5 18.06 120.91 17.67Q121.33 17.27 121.63 16.69Q121.93 16.11 121.93 15.32Q121.93 14.66 121.72 14.21Q121.51 13.77 121.16 13.51L121.15 13.5Q121.09 13.46 121.02 13.41Q120.72 13.22 120.36 13.12Q119.91 13 119.44 13Q118.89 13 118.24 13.24Q117.59 13.48 116.94 13.92Q116.29 14.37 115.69 15.02Q115.08 15.67 114.62 16.5Q114.16 17.32 113.87 18.32Q113.85 18.41 113.82 18.51Q113.45 19.49 113.1 20.26Q112.58 21.43 112.07 22.17Q111.56 22.91 111.03 23.26Q110.62 23.53 110.19 23.59Q110.06 23.61 109.92 23.61Q109.28 23.61 108.82 23.33Q108.51 23.14 108.29 22.83Q107.71 22.04 107.71 20.28Q107.71 18.76 108.12 17.51Q108.51 16.33 109.18 15.33Q109.21 15.28 109.25 15.22Q109.34 15.09 109.39 15Q109.44 14.91 109.44 14.86Q109.44 14.72 109.37 14.63Q109.35 14.6 109.32 14.57Q109.3 14.56 109.28 14.54Q109.17 14.47 109.01 14.47Q108.94 14.47 108.9 14.5Q108.86 14.52 108.77 14.63Q108.69 14.74 108.54 14.97Q108.4 15.19 108.14 15.6Q107.85 15.89 107.35 16.08Q106.86 16.26 106.21 16.26Q105.83 16.26 105.6 16.2Q105.37 16.14 105.27 16.06Q105.32 15.91 105.37 15.67Q105.42 15.44 105.46 15.2Q105.49 14.95 105.52 14.71Q105.54 14.47 105.54 14.27Q105.54 13.82 105.47 13.42Q105.41 13.02 105.29 12.71Q105.17 12.4 104.99 12.21Q104.83 12.05 104.66 12.03Q104.63 12.03 104.6 12.03Q104.52 12.03 104.45 12.05Q104.18 12.13 104 12.51Q103.77 13 103.77 13.74Q103.77 14.56 103.96 15.15Q104.16 15.73 104.43 16.13Q104.19 17.02 103.89 17.91Q103.59 18.79 103.2 19.8L103.34 19.94Q103.65 19.55 103.89 19.21Q104.14 18.88 104.35 18.51Q104.55 18.14 104.72 17.72Q104.89 17.29 105.06 16.69Q105.54 16.93 106.24 16.93Q106.8 16.93 107.29 16.76Q107.44 16.71 107.58 16.64Q107.37 17.05 107.18 17.55Q107 18.06 106.84 18.6Q106.69 19.14 106.59 19.71Q106.5 20.28 106.5 20.81Q106.5 21.89 106.77 22.65Q107.05 23.41 107.48 23.89Q107.92 24.37 108.45 24.59Q108.98 24.81 109.47 24.81Q110.12 24.81 110.69 24.6Q110.81 24.55 110.93 24.49Q111.59 24.18 112.22 23.37Q112.86 22.55 113.51 21.16Q113.56 21.05 113.61 20.94Q113.66 21.74 113.89 22.37Q114.19 23.19 114.69 23.72Q115.08 24.15 115.56 24.4Q115.69 24.47 115.82 24.52Q116.08 24.62 116.34 24.68Q116.74 24.78 117.16 24.78Q118.19 24.78 118.95 24.32Q119.16 24.2 119.35 24.03Q120.22 23.29 120.77 22.11Q120.91 23.24 121.45 23.78Q121.72 24.04 122.05 24.18Q122.38 24.31 122.77 24.31Q123.09 24.31 123.39 24.23Q123.67 24.14 123.93 23.97Q124.46 23.63 125 22.84Q125.54 22.06 126.11 20.78Q126.21 20.56 126.31 20.33Q126.31 20.35 126.31 20.37Q126.31 21.8 126.6 22.78Q126.89 23.77 127.3 24.37Q127.71 24.96 128.16 25.22Q128.61 25.48 128.92 25.48Q129.3 25.48 129.79 25.14Q130.29 24.81 130.82 24.19Q131.35 23.58 131.88 22.7Q132.41 21.82 132.89 20.71Q132.94 21.11 133.13 21.44Q133.28 21.71 133.53 21.93Q133.74 22.12 133.98 22.24Q134.36 22.42 134.83 22.42Q135.12 22.42 135.39 22.34Q135.64 22.27 135.89 22.13Q136.37 21.85 136.83 21.26Q137.13 20.88 137.43 20.37Q137.43 20.45 137.43 20.54Q137.43 21.8 137.79 22.74Q138.15 23.68 138.76 24.31Q139.1 24.66 139.5 24.91Q139.82 25.1 140.17 25.24Q140.49 25.36 140.82 25.43Q141.32 25.54 141.84 25.54Q142.78 25.54 143.55 25.19Q143.64 25.15 143.73 25.11Q144.08 24.93 144.39 24.71Q144.85 24.39 145.24 23.98Q145.91 23.29 146.44 22.41Q146.97 21.53 147.36 20.65Q147.54 20.26 147.69 19.88Q147.78 20.51 147.89 21.13Q148.1 22.23 148.47 23.09Q148.85 23.96 149.43 24.48Q149.63 24.67 149.86 24.79Q150.3 25.01 150.86 25.01Q151.02 25.01 151.17 24.99Q151.85 24.89 152.46 24.3Q153.21 23.58 153.84 22.49Q154.47 21.39 154.98 20.08Q155.5 18.78 155.91 17.6L155.24 17.43Q154.69 18.95 154.16 20.18Q153.63 21.41 153.12 22.28Q152.61 23.15 152.1 23.63Q151.61 24.1 151.11 24.11Q151.1 24.11 151.09 24.11Q150.97 24.11 150.87 24.08Q150.54 24 150.27 23.68Q149.91 23.25 149.65 22.46Q149.39 21.66 149.22 20.54Q149.05 19.41 148.98 18.01Q149.38 17.19 149.89 16.14Q150.4 15.1 150.93 13.94Q151.46 12.78 151.98 11.51Q152.5 10.25 152.91 9Q153.31 7.75 153.56 6.54ZM148.88 15.37L148.88 14.09Q148.88 11.63 149.14 9.56Q149.39 7.48 149.83 5.98Q150.27 4.47 150.86 3.63Q151.41 2.83 152.03 2.78Q152.06 2.78 152.1 2.78Q152.41 2.78 152.61 2.93Q152.62 2.94 152.62 2.94Q152.69 3 152.75 3.06Q152.87 3.19 152.94 3.35Q153.05 3.6 153.09 3.89Q153.14 4.18 153.14 4.44Q153.14 5.22 152.94 6.19Q152.74 7.16 152.42 8.22Q152.1 9.29 151.67 10.4Q151.24 11.51 150.77 12.6Q150.3 13.68 149.82 14.7Q149.34 15.72 148.92 16.57Q148.88 15.99 148.88 15.37ZM40.93 11.75Q40.57 11.55 40.31 11.39L40.04 12.03Q40.58 12.4 41.58 12.8Q42.58 13.21 44.05 13.39Q43.85 15.02 43.85 16.9Q43.85 17.25 43.85 17.58Q43.5 18.47 43.05 19.49Q42.57 20.61 41.99 21.62Q41.42 22.64 40.75 23.43Q40.07 24.21 39.3 24.52Q39.31 24.51 39.32 24.5Q39.84 24.15 40.15 23.49Q40.46 22.83 40.46 21.75Q40.46 21.1 40.28 20.52Q40.25 20.42 40.22 20.32Q40.03 19.83 39.78 19.38Q39.69 19.21 39.58 19.05Q39.48 18.89 39.37 18.73Q39.07 18.31 38.73 17.91Q38.26 17.38 37.83 16.88Q37.4 16.38 37.07 15.91Q36.74 15.43 36.6 14.97Q36.6 14.9 36.66 14.66Q36.72 14.42 36.8 14.1Q36.87 13.79 36.93 13.45Q36.99 13.12 36.99 12.86Q36.99 12.69 36.96 12.5Q36.94 12.41 36.91 12.32Q36.88 12.23 36.84 12.15Q36.78 12.02 36.69 11.93Q36.65 11.9 36.61 11.86Q36.46 11.75 36.23 11.75Q36.21 11.75 36.19 11.75Q36 11.77 35.83 11.95Q35.64 12.15 35.5 12.44Q35.35 12.73 35.28 13.06Q35.2 13.39 35.2 13.67Q35.2 13.87 35.23 14.03Q35.27 14.2 35.32 14.34Q35.37 14.49 35.44 14.66Q35.51 14.83 35.59 15.07Q35.25 16.47 34.91 17.6Q34.82 17.88 34.73 18.16Q34.69 18.28 34.64 18.41Q34.41 18.98 34.13 19.61Q33.85 20.25 33.5 20.87Q33.15 21.49 32.75 22Q32.35 22.5 31.9 22.81Q31.57 23.04 31.22 23.1Q31.09 23.12 30.96 23.12Q30.65 23.12 30.39 23.02Q30.12 22.91 29.93 22.63Q29.73 22.35 29.61 21.84Q29.49 21.34 29.49 20.54Q29.49 19.58 29.66 18.55Q29.83 17.51 30.06 16.56Q30.3 15.62 30.53 14.85Q30.76 14.08 30.86 13.63L30.23 13.46Q29.06 15.73 28.59 17.54Q28.12 19.34 28.12 20.5Q28.12 22.26 28.83 23.13Q29.23 23.62 29.74 23.84Q30.14 24.01 30.62 24.01Q31.16 24.01 31.64 23.82Q31.8 23.76 31.96 23.67Q32.57 23.34 33.06 22.8Q33.56 22.26 33.95 21.58Q34.33 20.92 34.64 20.22Q34.65 20.2 34.66 20.18Q34.98 19.46 35.23 18.79Q35.46 18.13 35.65 17.63Q35.76 17.37 35.86 17.1Q36.04 16.62 36.23 16.13Q36.48 16.69 36.95 17.24Q37.42 17.79 37.87 18.44Q38.33 19.1 38.66 19.94Q38.99 20.78 38.99 21.94Q38.99 22.5 38.87 23Q38.74 23.49 38.47 23.86Q38.3 24.1 38.08 24.28Q37.96 24.37 37.82 24.44Q37.44 24.66 36.93 24.66Q36.4 24.66 36.07 24.45Q35.75 24.25 35.59 24.01L35.03 24.38Q35.14 24.54 35.27 24.67Q35.41 24.8 35.56 24.91Q35.78 25.07 36.03 25.19Q36.12 25.23 36.22 25.26Q36.41 25.33 36.61 25.38Q36.77 25.42 36.93 25.45Q37.3 25.51 37.66 25.51Q38.62 25.51 39.42 25.16Q39.73 25.02 40.03 24.83Q41.06 24.14 41.88 23.03Q42.7 21.92 43.35 20.5Q43.65 19.86 43.93 19.19Q44 20.06 44.13 20.75Q44.41 22.26 44.9 23.14Q45.39 24.02 46.04 24.37Q46.33 24.51 46.64 24.6Q47.03 24.71 47.45 24.71Q47.83 24.71 48.18 24.61Q48.48 24.52 48.75 24.36Q49.35 24.01 49.85 23.42Q50.34 22.83 50.75 22.08Q51.05 21.55 51.31 20.98Q51.36 21.97 51.66 22.74Q52.02 23.68 52.62 24.31Q52.96 24.66 53.37 24.91Q53.68 25.1 54.03 25.24Q54.35 25.36 54.69 25.43Q55.18 25.54 55.71 25.54Q56.64 25.54 57.42 25.19Q57.51 25.15 57.6 25.11Q57.94 24.93 58.26 24.71Q58.72 24.39 59.11 23.98Q59.78 23.29 60.31 22.41Q60.75 21.67 61.1 20.93Q61.15 21.95 61.45 22.74Q61.81 23.68 62.42 24.31Q62.76 24.66 63.16 24.91Q63.47 25.1 63.83 25.24Q64.15 25.36 64.48 25.43Q64.98 25.54 65.5 25.54Q66.43 25.54 67.21 25.19Q67.3 25.15 67.39 25.11Q67.74 24.93 68.05 24.71Q68.51 24.39 68.9 23.98Q69.57 23.29 70.1 22.41Q70.63 21.53 71.02 20.65Q71.41 19.77 71.71 18.96Q72.01 18.16 72.23 17.6L71.57 17.43Q71.35 18.02 71.06 18.8Q70.78 19.58 70.42 20.39Q70.06 21.2 69.61 21.99Q69.16 22.78 68.61 23.38Q68.06 23.99 67.41 24.37Q67.15 24.52 66.86 24.61Q66.45 24.74 66 24.74Q65.72 24.74 65.46 24.69Q65.13 24.63 64.81 24.5Q64.79 24.49 64.78 24.49Q64.22 24.25 63.77 23.77Q63.31 23.27 63.01 22.5Q62.7 21.73 62.6 20.67Q62.87 20.73 63.22 20.77Q63.57 20.81 63.96 20.81Q64.37 20.81 64.77 20.73Q65.16 20.66 65.54 20.5Q65.99 20.32 66.39 20.05Q66.65 19.87 66.89 19.64Q66.97 19.57 67.03 19.5Q67.53 18.99 67.84 18.31Q68.2 17.53 68.2 16.57Q68.2 15.66 67.78 15.03Q67.69 14.89 67.58 14.76Q67.38 14.54 67.13 14.38Q66.61 14.06 65.89 14.06Q65.07 14.06 64.22 14.5Q63.36 14.93 62.67 15.76Q61.98 16.59 61.54 17.79Q61.34 18.32 61.23 18.91Q60.97 19.63 60.63 20.39Q60.27 21.2 59.82 21.99Q59.37 22.78 58.82 23.38Q58.27 23.99 57.62 24.37Q57.36 24.52 57.07 24.61Q56.66 24.74 56.2 24.74Q55.93 24.74 55.66 24.69Q55.33 24.63 55.02 24.5Q55 24.49 54.98 24.49Q54.43 24.25 53.98 23.77Q53.52 23.27 53.21 22.5Q52.91 21.73 52.8 20.67Q53.08 20.73 53.43 20.77Q53.78 20.81 54.17 20.81Q54.58 20.81 54.97 20.73Q55.37 20.66 55.75 20.5Q56.2 20.32 56.59 20.05Q56.86 19.87 57.1 19.64Q57.17 19.57 57.24 19.5Q57.73 18.99 58.05 18.31Q58.41 17.53 58.41 16.57Q58.41 15.66 57.99 15.03Q57.9 14.89 57.78 14.76Q57.58 14.54 57.34 14.38Q56.82 14.06 56.1 14.06Q55.28 14.06 54.43 14.5Q53.57 14.93 52.88 15.76Q52.19 16.59 51.74 17.79Q51.59 18.22 51.48 18.69Q51.33 19.1 51.16 19.53Q50.73 20.64 50.23 21.57Q49.73 22.5 49.13 23.11Q48.66 23.58 48.13 23.69Q47.97 23.72 47.81 23.72Q47.36 23.72 46.99 23.53Q46.68 23.37 46.44 23.07Q45.92 22.42 45.63 21.44Q45.35 20.47 45.26 19.35Q45.16 18.23 45.15 17.27Q45.52 16.54 45.98 15.54Q46.43 14.54 46.86 13.43Q48.72 13.33 50.22 12.91Q51.73 12.49 53.13 11.96L52.8 11.33Q51.74 11.75 50.3 12.16Q48.85 12.57 47.15 12.73Q47.4 12.01 47.64 11.28Q47.88 10.56 48.05 9.88Q48.22 9.21 48.33 8.61Q48.43 8.01 48.43 7.51Q48.43 6.83 48.21 6.42Q48.12 6.26 47.99 6.17Q47.78 6.01 47.45 6.01Q46.99 6.01 46.51 6.48Q46.02 6.95 45.57 7.83Q45.11 8.71 44.74 9.95Q44.36 11.19 44.12 12.73Q43.42 12.66 42.83 12.5Q42.24 12.33 41.76 12.15Q41.28 11.96 40.93 11.75ZM33.24 8.67Q33.39 8.42 33.39 8.08Q33.39 7.84 33.27 7.59Q33.15 7.34 32.91 7.14Q32.67 6.93 32.33 6.81Q31.99 6.68 31.56 6.68Q31.21 6.68 30.92 6.8Q30.7 6.89 30.51 7.04Q30.29 7.21 30.17 7.44Q30.06 7.68 30.06 7.98Q30.06 8.09 30.08 8.2Q30.11 8.35 30.18 8.5Q30.22 8.56 30.25 8.62Q30.37 8.79 30.54 8.92Q30.77 9.1 31.09 9.21Q31.41 9.33 31.77 9.33Q32.47 9.33 32.93 9Q33.13 8.86 33.24 8.67ZM47.09 7.22Q47.4 6.92 47.56 6.92Q47.57 6.92 47.58 6.92Q47.73 6.96 47.73 7.48Q47.73 7.84 47.64 8.39Q47.56 8.95 47.39 9.64Q47.21 10.33 46.98 11.14Q46.75 11.94 46.45 12.8L45.28 12.8Q45.47 11.15 45.79 10.04Q46.1 8.92 46.45 8.22Q46.79 7.53 47.09 7.22ZM32.46 8.01Q32.47 8.04 32.47 8.08Q32.47 8.13 32.45 8.18Q32.42 8.27 32.34 8.34Q32.21 8.45 31.95 8.45Q31.68 8.45 31.52 8.33Q31.42 8.25 31.38 8.14Q31.35 8.08 31.35 8.01Q31.35 7.87 31.42 7.78Q31.54 7.62 31.88 7.62Q32.18 7.62 32.32 7.76Q32.44 7.88 32.46 8.01ZM45.69 14.7Q45.44 15.31 45.15 15.91L45.15 15.87Q45.15 15.22 45.16 14.62Q45.18 14.01 45.21 13.46L46.19 13.46Q45.95 14.09 45.69 14.7ZM56.01 14.73Q56.07 14.73 56.14 14.73Q56.53 14.73 56.83 14.88Q57.02 14.98 57.17 15.12Q57.26 15.2 57.33 15.29Q57.54 15.55 57.64 15.89Q57.74 16.23 57.74 16.61Q57.74 17.29 57.51 17.88Q57.48 17.95 57.44 18.02Q57.18 18.6 56.76 19.04Q56.71 19.09 56.66 19.14Q56.33 19.46 55.94 19.69Q55.76 19.79 55.56 19.88Q55 20.12 54.43 20.14Q54.39 20.14 54.34 20.14Q53.76 20.14 53.36 20.08Q52.96 20.02 52.73 19.94Q52.73 18.85 53.03 17.89Q53.33 16.93 53.81 16.23Q54.29 15.53 54.9 15.13Q55.44 14.77 56.01 14.73ZM65.8 14.73Q65.86 14.73 65.93 14.73Q66.32 14.73 66.62 14.88Q66.81 14.98 66.96 15.12Q67.05 15.2 67.12 15.29Q67.33 15.55 67.43 15.89Q67.53 16.23 67.53 16.61Q67.53 17.29 67.3 17.88Q67.27 17.95 67.24 18.02Q66.97 18.6 66.55 19.04Q66.5 19.09 66.45 19.14Q66.12 19.46 65.74 19.69Q65.55 19.79 65.36 19.88Q64.79 20.12 64.23 20.14Q64.18 20.14 64.13 20.14Q63.55 20.14 63.15 20.08Q62.75 20.02 62.53 19.94Q62.53 18.85 62.83 17.89Q63.12 16.93 63.6 16.23Q64.08 15.53 64.69 15.13Q65.23 14.77 65.8 14.73ZM142.14 14.73Q142.21 14.73 142.27 14.73Q142.66 14.73 142.96 14.88Q143.15 14.98 143.3 15.12Q143.39 15.2 143.46 15.29Q143.67 15.55 143.77 15.89Q143.87 16.23 143.87 16.61Q143.87 17.29 143.64 17.88Q143.61 17.95 143.58 18.02Q143.31 18.6 142.89 19.04Q142.84 19.09 142.79 19.14Q142.46 19.46 142.08 19.69Q141.89 19.79 141.7 19.88Q141.13 20.12 140.57 20.14Q140.52 20.14 140.47 20.14Q139.89 20.14 139.49 20.08Q139.09 20.02 138.87 19.94Q138.87 18.85 139.17 17.89Q139.47 16.93 139.94 16.23Q140.42 15.53 141.03 15.13Q141.58 14.77 142.14 14.73ZM5.96 26.15Q5.06 26.69 3.84 26.69Q3.36 26.69 2.93 26.54Q2.9 26.53 2.87 26.52Q2.54 26.39 2.27 26.18Q2.18 26.11 2.09 26.02Q1.99 25.92 1.9 25.81Q1.7 25.56 1.56 25.26Q1.36 24.83 1.36 24.28Q1.36 23.46 1.67 22.97Q1.98 22.49 2.4 22.23Q2.81 21.97 3.25 21.89Q3.69 21.8 3.94 21.8Q5.22 21.8 6.23 22.14Q7.24 22.49 8.11 23.02Q7.63 24.71 6.57 25.7Q6.28 25.96 5.96 26.15Z" fill="#EE1C45" fill-opacity="1.000000" fill-rule="evenodd"/>
</svg>
