<svg width="159.412903" height="121.992188" viewBox="0 0 159.413 121.992" fill="none" xmlns="http://www.w3.org/2000/svg" xmlns:xlink="http://www.w3.org/1999/xlink">
	<desc>
			Created with Pixso.
	</desc>
	<defs/>
	<path id="Vector" d="M159.41 98.78C159.43 97.18 159.05 95.6 158.3 94.18C145.82 69.77 133.36 45.36 120.93 20.93C117.79 14.76 114.63 8.58 111.48 2.42C110.22 -0.05 109.03 -0.49 106.43 0.46C105.12 0.95 103.83 1.48 102.53 1.96C95.45 4.56 87.85 5.45 80.35 4.54C74.37 3.82 68.58 2.24 62.84 0.47C59.72 -0.49 58.73 -0.04 57.31 2.93C45.45 27.63 33.48 52.28 21.78 77.06C15.18 91.05 7.92 104.68 0 117.94L0 119.8C2.14 122.76 4.46 122.71 6.24 119.69C6.52 119.2 6.81 118.7 7.09 118.21L12.19 109.28C12.46 112.25 12.45 115.13 12.46 118.01C12.47 120.9 13.58 121.98 16.41 121.98L155.39 121.98C158.33 121.98 159.4 120.89 159.41 117.91C159.41 111.54 159.36 105.16 159.41 98.78ZM34.86 86.37C34.86 95.65 34.82 104.94 34.89 114.23C34.89 115.57 34.5 115.82 33.27 115.79C28.86 115.71 24.45 115.72 20.04 115.79C19.02 115.79 18.62 115.65 18.63 114.49C18.71 109.25 18.67 104.01 18.66 98.76C18.65 98.14 18.78 97.53 19.05 96.97C31.72 70.59 44.4 44.21 57.06 17.82C57.15 17.65 57.26 17.48 57.59 16.93L57.59 45.06C57.59 55.7 57.55 66.34 57.62 76.97C57.62 78.37 57.16 78.77 55.92 79C49.96 80.09 44.01 81.25 38.07 82.41C35.62 82.88 34.86 83.84 34.86 86.37ZM41.1 106.12C41.1 100.57 41.1 95.02 41.06 89.48C41.06 88.49 41.25 88.05 42.31 87.87C46.21 87.19 50.13 86.41 54.42 85.59L41.35 107.26C40.86 106.94 41.09 106.5 41.09 106.11L41.1 106.12ZM43.53 115.7L60.69 87.24L77.86 115.7L43.53 115.7ZM67.51 86.15C67.51 86.11 67.51 86.06 67.51 86.02L67.51 86.15ZM80.31 107.1C80.02 107.32 79.94 107.07 79.86 106.92C75.82 100.25 71.79 93.57 67.76 86.89C67.63 86.68 67.46 86.5 67.54 86.21C70.27 86.36 72.85 87.3 75.5 87.86C77.09 88.2 79.28 88.02 80.09 89.22C80.85 90.33 80.3 92.32 80.31 93.93C80.32 98.33 80.31 102.73 80.31 107.1L80.31 107.1ZM102.06 115.79C97.3 115.72 92.52 115.72 87.75 115.79C86.67 115.79 86.52 115.43 86.52 114.48C86.55 105.46 86.54 96.43 86.52 87.41C86.52 84.79 85.85 83.9 83.29 83.29C77.19 81.86 71.1 80.43 65 79.03C64.22 78.85 63.77 78.68 63.77 77.68C63.81 57.66 63.82 37.64 63.8 17.63C63.83 17.37 63.87 17.11 63.92 16.85C70.08 29.49 76.09 41.81 82.08 54.11C88.98 68.28 95.87 82.46 102.75 96.63C103.13 97.36 103.33 98.17 103.33 98.99C103.31 104.12 103.29 109.26 103.33 114.39C103.38 115.43 103.21 115.81 102.07 115.79L102.06 115.79ZM107.86 92.89C97.23 70.99 86.59 49.09 75.93 27.2C75.79 26.87 75.67 26.54 75.58 26.19L75.66 26.09C77.33 26.09 78.91 26.62 80.53 26.9C82.59 27.27 84.25 26.36 84.65 24.56C85.04 22.77 83.94 21.21 81.85 20.8C78.8 20.19 75.76 19.63 72.76 18.78C72.3 18.65 71.69 18.7 71.48 18.06C71.4 17.87 71.32 17.68 71.22 17.5L66.67 8.2L73.22 9.66C84.17 12.1 94.92 11.48 105.43 7.47C106.5 7.06 106.99 7.21 107.53 8.28C121.83 36.4 136.15 64.5 150.48 92.58C150.68 92.98 151.05 93.33 150.92 93.96L149.75 93.96C136.42 93.96 123.09 93.96 109.76 93.96C108.82 93.99 108.31 93.81 107.85 92.89L107.86 92.89ZM110.35 115.78C109.74 115.78 109.57 115.58 109.57 115C109.59 112.22 109.57 109.44 109.57 106.25L116.94 115.78C114.55 115.77 112.44 115.75 110.34 115.78L110.35 115.78ZM153.19 114.39C153.19 115.42 153.04 115.8 151.88 115.79C143.22 115.74 134.56 115.76 125.9 115.79C125.57 115.83 125.24 115.77 124.94 115.64C124.64 115.5 124.39 115.28 124.2 115.01C120.49 110.15 116.75 105.32 112.81 100.19L114.45 100.19C126.85 100.19 139.24 100.18 151.64 100.17C152.76 100.17 153.23 100.32 153.2 101.63C153.1 105.89 153.13 110.14 153.17 114.39L153.19 114.39Z" fill="#999999" fill-opacity="1.000000" fill-rule="nonzero"/>
</svg>
