<svg width="163.536514" height="121.996704" viewBox="0 0 163.537 121.997" fill="none" xmlns="http://www.w3.org/2000/svg" xmlns:xlink="http://www.w3.org/1999/xlink">
	<desc>
			Created with Pixso.
	</desc>
	<defs/>
	<path id="Vector" d="M160.67 72.15C159.31 72.18 158.58 73.06 157.9 74.04C154.35 79.15 150.79 84.25 147.23 89.35C146.92 89.78 146.79 90.49 145.98 90.37C141.87 89.73 137.76 89.11 133.57 88.48C133.67 88.34 133.77 88.2 133.88 88.08C140 82.58 142.56 75.77 141.32 67.61C141.19 66.74 141.6 66.65 142.23 66.51C145.34 65.78 148.43 65.02 151.53 64.28C154.38 63.61 155.06 62.53 154.39 59.72C153.63 56.52 152.85 53.31 152.1 50.11C150.87 44.85 150.53 44.61 145.3 45.94C144.17 46.23 143.75 46.01 143.49 44.86C142.34 39.79 141.08 34.73 139.88 29.65C138.41 23.42 134.03 19.6 127.81 19.28C118.67 18.8 109.52 18.37 100.37 17.98C99.96 18 99.55 17.9 99.19 17.71C98.82 17.52 98.51 17.24 98.29 16.9C95.29 12.77 92.25 8.66 89.18 4.58C86.52 1.03 82.95 -0.73 78.59 0.27C64.05 3.62 49.55 7.15 35.05 10.63C33 11.12 32.25 12.5 32.75 14.63C34.9 23.62 37.06 32.6 39.22 41.58C39.81 44.03 39.8 44.03 37.41 44.62C36.79 44.77 36.18 44.94 35.56 45.09C33.16 45.66 33.16 45.65 32.56 43.17C30.77 35.68 28.97 28.19 27.16 20.71C26.66 18.66 25.32 17.65 23.69 18.03C22.07 18.4 21.29 19.86 21.69 21.94C22 23.45 22.32 24.96 22.77 26.43C22.87 26.78 22.9 27.15 22.85 27.51C22.8 27.87 22.67 28.22 22.47 28.52C19.26 34.28 15.85 39.93 13 45.85C11.1 49.82 8.6 52.17 4.11 52.65C0.97 53 0.37 54.4 1.11 57.49C2.56 63.53 4 69.57 5.43 75.62C5.7 76.75 6.47 78.16 6.06 78.96C5.58 79.89 3.89 79.68 2.74 80.02C2.48 80.09 2.22 80.16 1.97 80.26C0.47 80.85 -0.28 82.1 0.09 83.68C1.09 88.03 2.13 92.37 3.2 96.69C3.67 98.57 5.05 99.32 6.97 98.87C10.48 98.07 14.01 97.24 17.5 96.34C18.5 96.09 18.88 96.32 19.18 97.29C19.93 99.68 21.12 101.9 22.69 103.85C24.88 106.68 27.68 108.75 30.97 110.42C28.11 111.81 25.28 112.93 22.71 114.49C20.01 116.14 17.54 116.2 14.71 114.89C12.41 113.83 9.91 113.15 7.51 112.35C5.28 111.62 3.5 112.58 3.34 114.6C3.21 116.24 4.18 117.13 5.61 117.64C9.42 118.96 13.25 120.23 17.02 121.64C17.71 121.91 18.45 122.03 19.19 121.98C19.93 121.94 20.65 121.72 21.29 121.37C27.06 118.53 32.84 115.76 38.61 112.94C39.47 112.52 40.41 112.31 41.36 112.32C49.46 112.34 57.55 112.29 65.64 112.34C66.4 112.37 67.17 112.23 67.87 111.94C68.58 111.64 69.21 111.19 69.72 110.62C72.6 107.64 75.59 104.75 78.5 101.79C78.72 101.5 79.03 101.3 79.37 101.21C79.72 101.11 80.09 101.13 80.42 101.27C85.31 102.69 90.24 103.99 95.13 105.42C95.86 105.65 96.63 105.74 97.39 105.67C98.15 105.6 98.89 105.38 99.56 105.02C107.41 101.14 115.31 97.35 123.17 93.5C124.02 93.05 124.99 92.9 125.93 93.05C132.71 94.08 139.5 95.05 146.27 96.12C148.27 96.45 149.58 95.9 150.73 94.22C154.94 88.04 159.25 81.93 163.53 75.78L163.53 74.18C162.92 73.04 162.15 72.13 160.67 72.15ZM145.86 51.51C146.52 51.35 146.71 51.69 146.83 52.21C147.31 54.27 147.75 56.34 148.3 58.38C148.49 59.13 148.2 59.31 147.6 59.45C145.12 60.02 142.64 60.58 140.18 61.21C139.53 61.39 139.24 61.26 138.94 60.69C137.74 58.36 136.06 56.4 133.9 54.42C138.06 53.42 141.97 52.49 145.87 51.52L145.86 51.51ZM136.37 38.93C136.47 39.5 136.52 39.89 135.73 40.06C133.26 40.58 130.8 41.22 128.16 41.85C128.26 40.58 128.31 39.57 128.42 38.58C128.46 38.02 128.67 37.48 129.01 37.04C129.36 36.6 129.84 36.28 130.38 36.11C130.78 35.98 131.18 35.88 131.58 35.78C135.69 34.77 135.69 34.77 136.37 38.93ZM24.99 35.61C25.86 39.21 26.57 42.35 27.39 45.47C27.72 46.67 27.37 47.1 26.19 47.34C23.35 47.94 20.54 48.65 17.35 49.4L24.99 35.61ZM18.06 89.51C18.06 90.21 17.8 90.56 17.11 90.71C14.42 91.33 11.74 91.97 9.06 92.64C8.37 92.81 8.03 92.7 7.86 91.9C7.43 89.88 6.92 87.87 6.41 85.87C6.24 85.21 6.43 84.9 7.1 84.74C11.22 83.78 15.33 82.79 19.73 81.75C18.71 84.22 18.15 86.85 18.06 89.51L18.06 89.51ZM13.08 77.59C12.12 77.84 11.71 77.67 11.48 76.6C10.15 70.76 8.77 64.92 7.3 59.1C7 57.92 7.21 57.58 8.35 57.31C19.61 54.66 30.87 51.98 42.13 49.26C42.53 49.16 42.95 49.07 43.36 48.96C45.57 48.37 46.33 47.16 45.81 44.96C43.6 35.66 41.4 26.36 39.11 17.08C38.77 15.7 39.18 15.39 40.37 15.11C53.08 12.11 65.79 9.08 78.49 6.03C79.21 5.87 79.95 5.78 80.29 5.72C82.65 5.72 83.92 6.85 85 8.32C88.2 12.64 91.41 16.94 94.57 21.29C95.01 21.98 95.62 22.54 96.34 22.93C97.06 23.33 97.86 23.53 98.68 23.53C108.25 23.93 117.82 24.46 127.39 24.94C130.07 25.06 132.19 26.08 133.55 28.5C133.95 29.19 133.9 29.5 133.08 29.66C132.03 29.85 131.01 30.14 129.98 30.39C125.62 31.45 123.28 33.99 122.77 38.39C122.53 40.56 122.42 42.74 122.35 44.92C122.27 47.43 123.81 48.64 126.24 48.08C129.75 47.25 133.27 46.44 136.77 45.55C137.66 45.32 137.97 45.5 138.16 46.39C138.36 47.28 138.34 47.59 137.38 47.8C134.06 48.54 130.77 49.38 127.47 50.18C126.9 50.3 126.3 50.27 125.74 50.1C116.64 47.78 108.93 50.07 102.74 57.15C99.66 60.67 97.88 65.12 97.69 69.78C97.62 70.98 97.34 71.5 96.08 71.78C84.41 74.53 72.74 77.35 61.08 80.16C60.21 80.37 59.69 80.26 59.18 79.36C52.01 67.01 35.82 64.48 25.22 74.03C24.59 74.59 23.82 74.98 22.99 75.15C19.68 75.94 16.38 76.75 13.08 77.6L13.08 77.59ZM39.9 106.73C35.58 106.64 31.45 104.88 28.42 101.8C25.38 98.72 23.66 94.58 23.63 90.26C23.65 81.34 31.07 73.82 39.79 73.88C49.16 73.94 56.52 81.22 56.48 90.39C56.47 99.32 48.86 106.81 39.91 106.73L39.9 106.73ZM97.26 99.85C96.63 100.16 96.11 99.79 95.58 99.64C90.47 98.25 85.35 96.84 80.26 95.36C78.46 94.83 77.13 95.16 75.82 96.52C72.76 99.72 69.59 102.78 66.47 105.91C66.02 106.36 65.62 106.76 64.87 106.75C61.63 106.7 58.4 106.75 55.11 106.75C55.11 106.17 55.54 105.97 55.8 105.69C60.77 100.39 62.8 94.14 61.75 86.96C61.6 85.9 61.99 85.72 62.83 85.53C74.35 82.79 85.86 80.04 97.37 77.27C97.95 77.13 98.28 77.03 98.6 77.72C102.86 86.84 103.85 87.86 112.8 92.33C107.57 94.85 102.4 97.34 97.28 99.85L97.26 99.85ZM119.58 87.63C110.34 87.59 103.18 80.16 103.2 70.68C103.24 62.24 111.05 54.67 119.57 54.79C128.54 54.92 136.03 62.17 136.04 70.74C136.07 80.25 128.85 87.67 119.61 87.63L119.58 87.63Z" fill="#999999" fill-opacity="1.000000" fill-rule="nonzero"/>
</svg>
